<svg xmlns="http://www.w3.org/2000/svg" width="10" height="14" viewBox="0 0 10 14">
  <g fill="#FFF" fill-rule="evenodd">
    <path d="M3.64988987 12.6885537L3.64988987.412941096C3.64988987.184287762 3.44458357 8.8817842e-16 3.1860497 8.8817842e-16L.463840171 8.8817842e-16C.205306305 8.8817842e-16-1.11022302e-15.184287762-1.11022302e-15.412941096L-1.11022302e-15 12.6885537C-1.11022302e-15 12.917207.205306305 13.1049075.463840171 13.1049075L3.1860497 13.1049075C3.44458357 13.1049075 3.64988987 12.9206198 3.64988987 12.6885537L3.64988987 12.6885537zM9.26919948 8.8817842e-16L6.54698996 8.8817842e-16C6.29225806 8.8817842e-16 6.08314978.184287762 6.08314978.412941096L6.08314978 12.6885537C6.08314978 12.917207 6.28845609 13.1049075 6.54698996 13.1049075L9.26919948 13.1049075C9.52393138 13.1049075 9.73303966 12.9206198 9.73303966 12.6885537L9.73303966.412941096C9.73303966.184287762 9.52773335 8.8817842e-16 9.26919948 8.8817842e-16L9.26919948 8.8817842e-16z"/>
  </g>
</svg>
