<svg xmlns="http://www.w3.org/2000/svg" xmlns:xlink="http://www.w3.org/1999/xlink" width="26" height="26" viewBox="0 0 26 26">
  <defs>
    <polygon id="time-a" points=".218 25.968 15.308 25.968 15.308 0 .218 0 .218 25.968"/>
    <polygon id="time-c" points=".033 .326 .033 5.091 10.084 5.091 10.084 .326 .033 .326"/>
  </defs>
  <g fill="none" fill-rule="evenodd">
    <g transform="translate(9.866)">
      <mask id="time-b" fill="#fff">
        <use xlink:href="#time-a"/>
      </mask>
      <path fill="#000" d="M4.80016864,15.829125 L8.9042635,10.219625 C9.0308722,10.0484583 9.01114097,9.81120833 8.85932016,9.66116667 C8.70749934,9.511125 8.4674361,9.491625 8.29204743,9.61458333 L2.61603162,13.67275 C2.24607115,13.93925 2.01258498,14.352 1.97805534,14.8026667 C1.94188142,15.2533333 2.10685639,15.695875 2.43022925,16.0149167 C2.72564954,16.30525 3.1175336,16.4655833 3.53462978,16.4655833 C4.0333913,16.4655833 4.50694071,16.228875 4.80016864,15.829125 Z" mask="url(#time-b)"/>
      <path fill="#000" d="M13.4797154,8.47816667 C13.4753307,8.467875 13.4753307,8.45920833 13.4687536,8.45108333 C13.4643689,8.44241667 13.4561476,8.43591667 13.4495705,8.42779167 C13.006166,7.6765 12.4816443,6.97829167 11.8869671,6.34345833 L12.828585,5.4145 L13.4495705,6.02604167 L15.3081423,4.18925 L13.4495705,2.35083333 L11.5893544,4.18925 L12.2075995,4.80079167 L11.2681739,5.73191667 C10.6258129,5.14366667 9.91932543,4.62529167 9.15912516,4.18708333 C9.15035573,4.181125 9.1465191,4.17245833 9.13774967,4.168125 C9.12678788,4.16216667 9.11856653,4.16216667 9.1097971,4.15783333 C7.75272727,3.38541667 6.22794203,2.871375 4.60504875,2.682875 L4.60504875,2.16666667 L5.26275626,2.16666667 C5.8662029,2.16666667 6.35893544,1.68025 6.35893544,1.08333333 C6.35893544,0.486416667 5.8662029,0 5.26275626,0 L1.31431884,0 C0.7108722,0 0.218139657,0.486416667 0.218139657,1.08333333 C0.218139657,1.68025 0.7108722,2.16666667 1.31431884,2.16666667 L1.97421871,2.16666667 L1.97421871,2.66825 C1.49847694,2.717 1.02766798,2.79283333 0.559051383,2.899 C0.323372859,2.95370833 0.175388669,3.18445833 0.231293808,3.419 C0.285006588,3.65191667 0.520137022,3.79816667 0.755815547,3.74291667 C1.17126746,3.64975 1.58836364,3.579875 2.01039262,3.53329167 L2.44502767,3.501875 C2.5908195,3.49104167 2.72345718,3.48291667 2.84951779,3.47641667 L2.84951779,4.33333333 C2.84951779,4.57220833 3.04683004,4.76720833 3.28853755,4.76720833 C3.53024506,4.76720833 3.72755731,4.57220833 3.72755731,4.33333333 L3.72755731,3.48075 C5.3762108,3.55441667 6.93059289,3.992625 8.31123057,4.71195833 L7.87878788,5.45241667 C7.75875626,5.659875 7.82945982,5.92475 8.03937813,6.045 C8.10788933,6.08291667 8.1829776,6.10241667 8.25751779,6.10241667 C8.40988669,6.10241667 8.55732279,6.023875 8.63898814,5.88629167 L9.06923847,5.148 C10.4416548,6.00708333 11.6063452,7.16029167 12.4778076,8.516625 L11.7302134,8.94183333 C11.5224875,9.06045833 11.4501397,9.32695833 11.5718155,9.53441667 C11.6534809,9.67145833 11.7987246,9.75 11.9510935,9.75 C12.0256337,9.75 12.100722,9.73104167 12.1692332,9.693125 L12.9184717,9.26520833 C13.6572964,10.6491667 14.1023452,12.2107917 14.1670198,13.8655833 L13.3021344,13.8655833 C13.0598788,13.8655833 12.8631146,14.0600417 12.8631146,14.2989167 C12.8631146,14.5383333 13.0598788,14.7327917 13.3021344,14.7327917 L14.1670198,14.7327917 C14.1023452,16.38975 13.6572964,17.9492083 12.9184717,19.3347917 L12.1692332,18.9074167 C11.9615072,18.7871667 11.6918472,18.8565 11.5718155,19.066125 C11.4501397,19.2735833 11.5224875,19.5379167 11.7324058,19.6587083 L12.4778076,20.0839167 C11.6085375,21.44025 10.4438472,22.5912917 9.07143083,23.4525417 L8.63898814,22.71425 C8.51895652,22.504625 8.24929644,22.43475 8.04157049,22.5555417 C7.83165217,22.673625 7.75875626,22.9406667 7.88098024,23.1475833 L8.31342292,23.8864167 C6.93059289,24.6079167 5.3762108,25.0434167 3.72755731,25.1197917 L3.72755731,24.2672083 C3.72755731,24.0277917 3.53243742,23.8333333 3.28853755,23.8333333 C3.04683004,23.8333333 2.85171014,24.0277917 2.85171014,24.2672083 L2.85171014,25.1219583 C2.15179974,25.0986667 1.44750461,25.012 0.755815547,24.8554583 C0.520137022,24.802375 0.285006588,24.948625 0.231293808,25.181 C0.177581028,25.4139167 0.325565217,25.6468333 0.560695652,25.699375 C1.43654282,25.8981667 2.32938076,26 3.21783399,26 C3.23920949,26 3.25839262,25.9978333 3.27976812,25.9978333 C3.28415283,25.9978333 3.28634519,26 3.28853755,26 C3.29292227,26 3.29511462,25.9978333 3.29949934,25.9978333 C5.40580764,25.9832083 7.38441107,25.4204167 9.09499868,24.4492083 C9.10760474,24.4427083 9.12295125,24.4405417 9.13555731,24.431875 C9.14432675,24.4280833 9.15035573,24.4194167 9.15693281,24.4129167 C10.9294545,23.3935 12.4092964,21.9331667 13.4429934,20.1835833 C13.4517628,20.17275 13.4621765,20.1624583 13.4687536,20.1494583 C13.4753307,20.1413333 13.4753307,20.1305 13.4797154,20.1218333 C14.4794308,18.4058333 15.055473,16.419 15.055473,14.2989167 C15.055473,12.181 14.4794308,10.1941667 13.4797154,8.47816667 Z" mask="url(#time-b)"/>
    </g>
    <path fill="#000" d="M9.20845323 5.63225L7.01609486 5.63225C6.53213175 5.63225 6.13805534 6.02170833 6.13805534 6.5 6.13805534 6.97829167 6.53213175 7.36775 7.01609486 7.36775L9.20845323 7.36775C9.69241634 7.36775 10.0837523 6.97829167 10.0837523 6.5 10.0837523 6.02170833 9.69241634 5.63225 9.20845323 5.63225zM9.20845323 8.66666667L4.8237365 8.66666667C4.33977339 8.66666667 3.94569697 9.056125 3.94569697 9.53441667 3.94569697 10.0121667 4.33977339 10.3994583 4.8237365 10.3994583L9.20845323 10.3994583C9.69241634 10.3994583 10.0837523 10.0121667 10.0837523 9.53441667 10.0837523 9.056125 9.69241634 8.66666667 9.20845323 8.66666667z"/>
    <g transform="translate(0 11.375)">
      <mask id="time-d" fill="#fff">
        <use xlink:href="#time-c"/>
      </mask>
      <path fill="#000" d="M9.20845323.326083333L2.63137813.326083333C2.14741502.326083333 1.7533386.712833333 1.7533386 1.191125 1.7533386 1.66941667 2.14741502 2.058875 2.63137813 2.058875L9.20845323 2.058875C9.69241634 2.058875 10.0837523 1.66941667 10.0837523 1.191125 10.0837523.712833333 9.69241634.326083333 9.20845323.326083333zM9.20845323 3.35779167L.878039526 3.35779167C.394076416 3.35779167 0 3.74725 0 4.22554167 0 4.70383333.394076416 5.09058333.878039526 5.09058333L9.20845323 5.09058333C9.69241634 5.09058333 10.0837523 4.70383333 10.0837523 4.22554167 10.0837523 3.74725 9.69241634 3.35779167 9.20845323 3.35779167z" mask="url(#time-d)"/>
    </g>
    <path fill="#000" d="M9.20845323 17.7672083L3.50667721 17.7672083C3.02326219 17.7672083 2.63137813 18.1545 2.63137813 18.63225 2.63137813 19.1105417 3.02326219 19.5 3.50667721 19.5L9.20845323 19.5C9.69241634 19.5 10.0837523 19.1105417 10.0837523 18.63225 10.0837523 18.1545 9.69241634 17.7672083 9.20845323 17.7672083zM9.20845323 20.7989167L6.13805534 20.7989167C5.65409223 20.7989167 5.26275626 21.188375 5.26275626 21.6666667 5.26275626 22.1449583 5.65409223 22.5344167 6.13805534 22.5344167L9.20845323 22.5344167C9.69241634 22.5344167 10.0837523 22.1449583 10.0837523 21.6666667 10.0837523 21.188375 9.69241634 20.7989167 9.20845323 20.7989167z"/>
  </g>
</svg>
