<svg xmlns="http://www.w3.org/2000/svg" width="35" height="35" viewBox="0 0 35 35">
  <g fill="#E41139" fill-rule="evenodd" stroke="#E41139" stroke-width=".3" transform="translate(0 1)">
    <path d="M29.1684141,1.07200141 C30.8458359,1.07200141 32.2104844,2.42750406 32.2104844,4.09374991 C32.2104844,5.75992981 30.8458359,7.11543245 29.1684141,7.11543245 C27.4909258,7.11543245 26.1262773,5.75992981 26.1262773,4.09374991 C26.1262773,2.42750406 27.4909258,1.07200141 29.1684141,1.07200141 Z M29.1684141,8.18195908 C31.4379141,8.18195908 33.284207,6.34803986 33.284207,4.09374991 C33.284207,1.83945996 31.4379141,0.00554074074 29.1684141,0.00554074074 C26.8989141,0.00554074074 25.0526211,1.83945996 25.0526211,4.09374991 C25.0526211,6.34803986 26.8989141,8.18195908 29.1684141,8.18195908 L29.1684141,8.18195908 Z" transform="matrix(-1 0 0 1 58.337 0)"/>
    <path d="M15.5684141,32.1779178 L14.1368281,32.1779178 C13.8403242,32.1779178 13.6,32.4166974 13.6,32.7112141 C13.6,33.0056649 13.8403242,33.2444444 14.1368281,33.2444444 L15.5684141,33.2444444 C15.8648516,33.2444444 16.1052422,33.0056649 16.1052422,32.7112141 C16.1052422,32.4166974 15.8648516,32.1779178 15.5684141,32.1779178" transform="matrix(-1 0 0 1 29.705 0)"/>
    <path d="M11.2736562,32.1779178 L9.84213672,32.1779178 C9.54563281,32.1779178 9.30524219,32.4166974 9.30524219,32.7112141 C9.30524219,33.0056649 9.54563281,33.2444444 9.84213672,33.2444444 L11.2736562,33.2444444 C11.5701602,33.2444444 11.8105508,33.0056649 11.8105508,32.7112141 C11.8105508,32.4166974 11.5701602,32.1779178 11.2736562,32.1779178" transform="matrix(-1 0 0 1 21.116 0)"/>
    <path d="M32.8996856,24.5904011 C32.8267051,24.9301672 32.6094903,25.2217817 32.3037559,25.3905104 L29.2580332,27.0712677 C28.4753692,27.5031157 27.5044434,27.3913115 26.842041,26.7931753 L20.6459395,21.1980825 L20.9031309,20.9585774 C21.0994278,20.775667 21.1271856,20.4759393 20.9676778,20.260576 C20.9655528,20.2576737 20.9633614,20.2548374 20.9613028,20.2518691 C20.7726426,19.9969951 20.4020957,19.9632889 20.1697403,20.1796416 L12.4748496,27.3452046 C12.366541,27.4459933 12.3051153,27.5867545 12.3051153,27.7342437 L12.3051153,30.9007111 C12.3051153,31.5966018 11.7318301,32.1893291 11.0312442,32.1777199 C10.3503145,32.1665065 9.79987308,31.6126963 9.79987308,30.9336917 L9.79987308,27.3913115 C9.79987308,26.8418547 10.0196114,26.3148907 10.4108106,25.9263132 L15.3689004,21.0014522 C15.578545,20.7931467 15.578545,20.4555573 15.3689004,20.2473178 L9.64268949,14.5594836 C9.64262308,14.5594176 9.64255667,14.5593517 9.64249027,14.5593517 L6.44323636,11.3814071 L10.7401856,7.11325573 C11.7700137,6.09032945 13.1667364,5.51574145 14.6230918,5.51574145 L23.103502,5.51574145 C24.2555176,5.51574145 25.1893223,6.44328783 25.1893223,7.58758272 L25.1893223,10.2819658 C25.1893223,10.9778564 24.6160371,11.5705178 23.9154512,11.5589746 C23.2345215,11.5476952 22.6840801,10.993951 22.6840801,10.3149464 L22.6840801,8.53742399 C22.6840801,8.24297319 22.4436895,8.00419365 22.147252,8.00419365 L15.7204551,8.00419365 C15.5448106,8.00419365 15.3740801,8.08123633 15.2713496,8.22278907 C15.1123731,8.44184621 15.1425215,8.7327351 15.3255371,8.91459012 L21.8209981,15.3664529 C22.2627325,15.8052928 22.5262325,16.398218 22.5221153,17.018781 C22.5178653,17.6481827 22.2604746,18.2327309 21.7989512,18.6624681 L21.7154121,18.7402363 C21.5187832,18.9234106 21.4916231,19.2234681 21.6515293,19.4390293 C21.6537207,19.4419316 21.6558457,19.4447679 21.6579707,19.4476702 C21.8466309,19.7020825 22.2167793,19.735327 22.4488692,19.5192381 L22.5333379,19.4406123 C22.6246465,19.3555224 22.710045,19.2660131 22.7902637,19.1731397 L28.209877,24.5563651 C28.3840606,24.7294473 28.6544668,24.7624938 28.8657051,24.6365739 L31.093502,23.3089069 C31.6271426,22.9909079 32.3109278,23.1239517 32.6843965,23.6184628 C32.8941075,23.8962914 32.9725996,24.250503 32.8996856,24.5904011 Z M8.72615042,18.7302102 C8.72615042,19.8726582 7.79048636,20.8020515 6.64039652,20.8020515 L3.17883792,20.8020515 C2.48814652,20.8020515 1.92615042,20.2438878 1.92615042,19.5578254 C1.92615042,18.871763 2.48814652,18.3135993 3.17883792,18.3135993 L5.68408011,18.3135993 C5.98058402,18.3135993 6.22090824,18.0748198 6.22090824,17.780369 L6.22090824,12.6687718 L8.72615042,15.157224 L8.72615042,18.7302102 Z M33.5431621,22.9784413 C32.8385254,22.0452222 31.54792,21.7941739 30.5409356,22.3942889 L28.6725293,23.5078459 L23.3618223,18.2327309 C23.5083809,17.8638758 23.588666,17.4677788 23.5953731,17.0580938 C23.6101817,16.1458504 23.2605528,15.288091 22.6110332,14.6429905 L17.001166,9.07072028 L21.6103575,9.07072028 L21.6103575,10.3149464 C21.6103575,11.5890529 22.6539981,12.6256332 23.9367012,12.6256332 C25.2194043,12.6256332 26.263045,11.5890529 26.263045,10.3149464 L26.263045,7.58758272 C26.263045,5.85709065 24.84567,4.44921481 23.103502,4.44921481 L14.6230918,4.44921481 C12.869502,4.44921481 11.2209004,5.12749383 9.98096292,6.3591873 L5.33597855,10.9730413 C5.33684183,10.9731732 5.3376387,10.973437 5.33850199,10.9736349 C5.22169339,11.0714554 5.14725199,11.2177573 5.14725199,11.3814071 L5.14725199,17.2470727 L3.17883792,17.2470727 C1.8961348,17.2470727 0.852494173,18.2837189 0.852494173,19.5578254 C0.852494173,20.8319319 1.8961348,21.8685781 3.17883792,21.8685781 L6.64039652,21.8685781 C8.38249808,21.8685781 9.79987308,20.4607023 9.79987308,18.7302102 L9.79987308,16.2237506 L14.230166,20.624418 L9.65165433,25.1722448 C9.05479495,25.7649062 8.72615042,26.5530765 8.72615042,27.3913115 L8.72615042,30.9336917 C8.72615042,31.3915944 8.86155277,31.8184952 9.09377542,32.1779178 L7.83145902,32.1779178 C7.53495511,32.1779178 7.29463089,32.4166974 7.29463089,32.7112141 C7.29463089,33.0056649 7.53495511,33.2444444 7.83145902,33.2444444 L16.4209082,33.2444444 C16.7174121,33.2444444 16.9577364,33.0056649 16.9577364,32.7112141 C16.9577364,32.4166974 16.7174121,32.1779178 16.4209082,32.1779178 L13.0112129,32.1779178 C13.2434356,31.8184952 13.3788379,31.3915944 13.3788379,30.9336917 L13.3788379,27.9652399 L19.8601543,21.9297901 L26.1198067,27.5822691 C26.716002,28.1206444 27.477084,28.3988688 28.2453379,28.3988688 C28.7701465,28.3988688 29.2983418,28.2689912 29.7794551,28.0034314 L32.8252442,26.3226741 C33.4022481,26.0042794 33.8121075,25.4539651 33.9497676,24.8126903 C34.0873614,24.1714815 33.939209,23.5029647 33.5431621,22.9784413 L33.5431621,22.9784413 Z" transform="matrix(-1 0 0 1 34.852 0)"/>
  </g>
</svg>
