<svg xmlns="http://www.w3.org/2000/svg" width="22" height="16" viewBox="0 0 22 16">
  <g fill-rule="evenodd">
    <path d="M17.67568 13.4293333C17.58944 13.4293333 17.50408 13.3982222 17.43456 13.3324444L13.38568 9.496C13.24488 9.36 13.23784 9.13777778 13.36808 8.992 13.50272 8.84977778 13.72624 8.84266667 13.86704 8.97866667L17.91944 12.8151111C18.06024 12.9502222 18.06728 13.176 17.93352 13.3182222 17.86488 13.392 17.7716 13.4293333 17.67568 13.4293333zM4.15624 13.4293333C4.05944 13.4293333 3.96704 13.392 3.8984 13.3182222 3.76376 13.176 3.7708 12.9502222 3.9116 12.8151111L7.96488 8.97866667C8.1092 8.84266667 8.33272 8.84977778 8.46296 8.992 8.5976 9.13777778 8.59056 9.36 8.44976 9.496L4.39648 13.3324444C4.32784 13.3982222 4.2416 13.4293333 4.15624 13.4293333z"/>
    <path d="M20.2264501,15.9991111 L1.77354992,15.9991111 C0.796323915,15.9991111 0,15.1881339 0,14.1848444 L0,1.81426672 C0,0.815512893 0.796323915,0 1.77354992,0 L20.2264501,0 C21.2027893,0 22,0.815512893 22,1.81426672 L22,14.1848444 C22,15.1881339 21.2027893,15.9991111 20.2264501,15.9991111 Z M1.77354992,0.726613823 C1.18827845,0.726613823 0.710306744,1.21555871 0.710306744,1.81426672 L0.710306744,14.1848444 C0.710306744,14.7871809 1.18827845,15.2724973 1.77354992,15.2724973 L20.2264501,15.2724973 C20.8152687,15.2724973 21.2896933,14.7871809 21.2896933,14.1848444 L21.2896933,1.81426672 C21.2896933,1.21555871 20.8152687,0.726613823 20.2264501,0.726613823 L1.77354992,0.726613823 Z"/>
    <path d="M10.91728,10.9475556 C10.44648,10.9475556 9.9792,10.7757626 9.62544,10.4321768 L0.58432,1.68537987 C0.43648,1.54482203 0.4224,1.29689363 0.55,1.13290949 C0.6776,0.968925346 0.90024,0.957212193 1.04808,1.09484174 L10.08568,9.8416387 C10.53624,10.2760015 11.29568,10.2760015 11.74624,9.8416387 L20.7724,1.10948318 C20.92024,0.968925346 21.14024,0.983566787 21.27136,1.14755093 C21.39808,1.31153507 21.38488,1.55555909 21.23704,1.69709302 L12.21,10.4282724 C11.85272,10.7757626 11.38544,10.9475556 10.91728,10.9475556 Z"/>
  </g>
</svg>
