<svg xmlns="http://www.w3.org/2000/svg" width="30" height="22" viewBox="0 0 30 22">
  <g fill-rule="evenodd">
    <path d="M21.8256912,16.4609868 L18.1851508,14.6286726 C17.8427639,14.4545548 17.6289506,14.1077582 17.6289506,13.7201902 L17.6289506,12.42366 C17.7165712,12.3147764 17.8075251,12.1929419 17.9022887,12.0581565 C18.3751542,11.3871074 18.7542085,10.6397918 19.0280229,9.83203869 C19.5656514,9.58501204 19.9151814,9.04874836 19.9151814,8.44581148 L19.9151814,6.90896996 C19.9151814,6.54010881 19.7775599,6.18227992 19.5337461,5.90311583 L19.5337461,3.86070909 C19.5561274,3.65061653 19.6399384,2.39341877 18.7375415,1.35734584 C17.9546706,0.457976976 16.6860768,0.00277641478 14.9636655,0.00277641478 C13.2407779,0.00277641478 11.9702793,0.457976976 11.1874084,1.35734584 C10.6421607,1.98522522 10.4583479,2.69320839 10.4021564,3.20117193 C9.74928778,2.86204991 8.9792742,2.68985075 8.10497307,2.68985075 C4.14871282,2.68985075 3.91775636,6.08682691 3.91394677,6.14294752 L3.91394677,7.9004342 C3.66870435,8.17000503 3.53489247,8.48322522 3.53489247,8.7940471 L3.53489247,10.1188774 C3.53489247,10.5328269 3.71870523,10.9189559 4.03299649,11.1794132 C4.34776395,12.3728157 5.12158712,13.2760219 5.42064001,13.5925997 L5.42064001,14.6435422 C5.42064001,14.9471691 5.25920859,15.2224959 4.97634646,15.3803052 L2.44106365,16.9804622 C1.47009414,17.5143276 0.867226369,18.5374496 0.867226369,19.6502687 L0.867226369,21.1079658 L23.7247724,21.1079658 L23.7247724,19.5567343 C23.7247724,18.23766 22.9976167,17.0514524 21.8256912,16.4609868 Z M6.20017757,19.4814272 L6.20017757,20.339545 L1.63009697,20.339545 L1.63009697,19.6502687 C1.63009697,18.8185324 2.0801049,18.0539489 2.82583234,17.6433571 L5.35968655,16.041761 C5.86731455,15.7621172 6.18351061,15.2282519 6.18351061,14.6435422 L6.18351061,13.2664286 L6.06255609,13.1522687 C6.05160352,13.1431551 5.03968091,12.179991 4.74015182,10.8681116 L4.7063417,10.7146193 L4.5763394,10.6301986 C4.40157442,10.5160387 4.29538207,10.3251327 4.29538207,10.1188774 L4.29538207,8.7940471 C4.29538207,8.65542438 4.38871705,8.49042017 4.55205326,8.34268385 L4.67681737,8.22996295 L4.67681737,6.1654917 C4.68253175,6.05468946 4.88158288,3.45587319 8.10497307,3.45587319 C9.01641771,3.45587319 9.7850027,3.66788441 10.3912039,4.08758988 L10.3912039,5.90311583 C10.14739,6.18227992 10.0097686,6.54010881 10.0097686,6.90896996 L10.0097686,8.44581148 C10.0097686,8.56189002 10.0231021,8.67604991 10.0488169,8.78637249 C10.0583409,8.83146085 10.0788174,8.8727119 10.0935796,8.9158816 C10.1140561,8.97967684 10.1307231,9.04682971 10.1607236,9.10678763 C10.1607236,9.10870629 10.1626284,9.10870629 10.1626284,9.10870629 C10.2592968,9.31112424 10.4021564,9.49291667 10.580731,9.63729535 C10.5826358,9.64496996 10.5845406,9.65216491 10.5864454,9.65792087 C10.6088268,9.74569928 10.6331129,9.83395734 10.6588276,9.92029675 L10.690733,10.0195871 C10.6964473,10.0382939 10.7016855,10.0550822 10.7073999,10.073789 C10.7202573,10.1150401 10.7335909,10.1562911 10.748353,10.1956235 C10.7707344,10.2632561 10.7950205,10.3323276 10.82264,10.4090737 C10.8340688,10.4392925 10.8469262,10.4690317 10.8597836,10.4992505 C10.8897841,10.5798339 10.9212132,10.6565801 10.9550233,10.7333262 C10.9621663,10.7520331 10.9697855,10.7726586 10.9769285,10.7894468 L10.9993098,10.8383725 C11.0088338,10.8609167 11.0197864,10.8815422 11.0293104,10.9021677 C11.0664539,10.9846698 11.1035974,11.0647736 11.1407409,11.1419994 C11.1464553,11.1530317 11.1521697,11.1659826 11.1593126,11.1794132 C11.1835988,11.2259405 11.2059801,11.2729475 11.2302663,11.3180359 C11.2712194,11.3967007 11.3121725,11.4715282 11.3531256,11.544437 C11.3731259,11.5784931 11.3921739,11.6139882 11.4107457,11.6475646 C11.4664609,11.7415787 11.5183666,11.8274384 11.5688437,11.9080219 C11.5797963,11.9267287 11.591225,11.9439966 11.6021776,11.9607848 C11.6931316,12.1046838 11.773133,12.2212421 11.840277,12.3128578 C11.856944,12.3354019 11.8717062,12.3579461 11.8869445,12.376653 C11.8959923,12.3876853 11.9074211,12.4044735 11.9145641,12.4140667 L11.9145641,13.6842154 C11.9145641,14.0554749 11.7136081,14.3965155 11.3902691,14.5744707 L10.3816799,15.1289615 L10.2069149,15.1121733 L10.1345327,15.263747 L7.99163773,16.4422799 C6.88685635,17.0495338 6.20017757,18.2131972 6.20017757,19.4814272 Z M22.9619018,20.339545 L6.96304817,20.339545 L6.96304817,19.4814272 C6.96304817,18.4961986 7.4968671,17.5891551 8.35640607,17.1171663 L11.7545612,15.2488774 C12.3240951,14.9361369 12.6774347,14.3365576 12.6774347,13.6842154 L12.6774347,12.1425773 L12.6031476,12.0543192 L12.5879093,12.0356123 C12.5879093,12.0356123 12.5636231,12.0053935 12.5245748,11.9550289 C12.5231462,11.9531102 12.5212414,11.9492729 12.5193366,11.9454356 C12.4988601,11.9195338 12.4745739,11.8873963 12.448383,11.8499826 C12.4464782,11.8499826 12.4464782,11.8480639 12.4464782,11.8480639 C12.3888581,11.7693991 12.3183807,11.6643529 12.2383793,11.5410794 C12.2364745,11.5391607 12.2364745,11.5353234 12.2345697,11.5334047 C12.1974262,11.4734468 12.1564731,11.4096516 12.1174248,11.3424987 C12.1136152,11.3367428 12.1098056,11.3329054 12.1079008,11.3271495 C12.0207564,11.1813318 11.9293262,11.0163276 11.8383722,10.8345352 C11.8383722,10.8345352 11.8383722,10.8345352 11.8383722,10.8326165 C11.7902762,10.7352449 11.7417039,10.6321172 11.6950364,10.525632 C11.6878934,10.5102827 11.6802742,10.4954132 11.6745598,10.4805436 C11.6540833,10.4335366 11.6317019,10.3831719 11.6112254,10.330409 C11.6040824,10.3117021 11.5964632,10.2929952 11.5893202,10.2742883 C11.5688437,10.2239237 11.5483671,10.1730794 11.5278906,10.1150401 C11.4888423,10.0099938 11.4516988,9.90158988 11.4159838,9.78886898 L11.3955073,9.72171611 C11.3936025,9.71212284 11.3902691,9.70492789 11.3883643,9.69725327 C11.3531256,9.57541877 11.3174107,9.45166562 11.2897911,9.32455482 L11.2540762,9.17250152 L11.1240739,9.08808076 C10.9045463,8.94418174 10.7726392,8.70435005 10.7726392,8.44581148 L10.7726392,6.90896996 C10.7726392,6.69551975 10.8635931,6.4931018 11.0274056,6.34344682 L11.1540745,6.22880727 L11.1540745,3.70529815 L11.1426457,3.69570489 C11.1297883,3.41845944 11.1464553,2.5699349 11.7602756,1.86339072 C12.3926677,1.13813967 13.4698296,0.771197172 14.9636655,0.771197172 C16.4498821,0.771197172 17.524663,1.13430236 18.1575313,1.85571611 C18.8994492,2.70088301 18.7765899,3.78012564 18.7746851,3.78971891 L18.7732565,6.22880727 L18.8975444,6.34536548 C19.0632616,6.4931018 19.1523108,6.69551975 19.1523108,6.90896996 L19.1523108,8.44581148 C19.1523108,8.77917754 18.9346879,9.0732112 18.6113488,9.17442017 L18.4213455,9.23245944 L18.3599158,9.42192648 C18.1051494,10.2200864 17.7427621,10.9582883 17.2813254,11.6139882 C17.1675139,11.7751551 17.0579881,11.9195338 16.9632245,12.0279377 L16.868461,12.1368213 L16.868461,13.7201902 C16.868461,14.4003529 17.2422771,15.0109644 17.8446687,15.3145913 L21.485209,17.1469054 C22.3966537,17.6059433 22.9619018,18.529775 22.9619018,19.5567343 L22.9619018,20.339545 Z"/>
    <path d="M27.3558264,16.9023787 L23.6319512,15.2796774 C23.5443306,15.2350687 23.4476622,15.1261851 23.3638512,14.9837251 L25.8510379,14.9818065 C25.8938958,14.9856438 26.9186758,15.0796578 27.7410713,14.7232679 C28.0515529,14.5884825 28.2820332,14.3222693 28.3753682,13.9927405 C28.4701317,13.6593745 28.4106069,13.3068219 28.2134606,13.0238205 C27.5029718,12.0064544 25.8453236,9.34384292 25.7934179,6.64573633 C25.7915131,6.59920898 25.640558,2.00883029 21.1409549,1.97093689 C20.4790384,1.97669285 19.8671229,2.09085273 19.3090178,2.29902665 C19.1880633,1.98628612 19.0094887,1.66203366 18.7413887,1.35456942 C17.9604226,0.455200561 16.689924,0 14.9670365,0 C13.2446251,0 11.9760313,0.455200561 11.1931604,1.35456942 C10.2907635,2.39064236 10.3745745,3.64784011 10.3969559,3.85793268 L10.3969559,5.90033941 C10.153142,6.17950351 10.0155206,6.5373324 10.0155206,6.90619355 L10.0155206,8.44111641 C10.0155206,8.90926788 10.2255243,9.34384292 10.586483,9.63451893 C10.9345844,11.0265021 11.6655497,12.0760056 11.9203161,12.4112903 L11.9203161,13.681439 C11.9203161,14.0526985 11.7193601,14.3937391 11.3955449,14.5716942 L7.99738972,16.4395035 C6.89213214,17.0467574 6.20592956,18.2104208 6.20592956,19.4786508 L6.20592956,21.1051893 L29.0634755,21.1051893 L29.0634755,19.6868247 C29.0634755,18.5006171 28.4087021,17.434805 27.3558264,16.9023787 Z M22.9676538,20.3367686 L6.96880016,20.3367686 L6.96880016,19.4786508 C6.96880016,18.4934222 7.50261909,17.5863787 8.36168186,17.1143899 L11.7603132,15.246101 C12.3293709,14.9333604 12.6831867,14.3337812 12.6831867,13.681439 L12.6831867,12.1398008 L12.5936613,12.0328359 C12.5846135,12.021324 11.6507875,10.8840421 11.2955431,9.3217784 L11.2598282,9.16972511 L11.1298259,9.08530435 C10.9083934,8.94140533 10.7783912,8.70157363 10.7783912,8.44303506 L10.7783912,6.90619355 C10.7783912,6.69274334 10.8674403,6.49032539 11.0331576,6.34067041 L11.1574455,6.22603086 L11.1574455,3.83730715 L11.1560169,3.7869425 C11.1541121,3.77734923 11.0236336,2.71297616 11.7660276,1.86061431 C12.3984197,1.13536325 13.4755816,0.768420757 14.9670365,0.768420757 C16.4551579,0.768420757 17.530415,1.13152595 18.1628071,1.85293969 C18.4775746,2.21076858 18.6356726,2.60984853 18.7137692,2.95280785 C18.7190074,2.97918934 18.7266266,3.00557083 18.7304362,3.0333913 C18.7356744,3.05977279 18.7413887,3.08807293 18.7471031,3.11397475 C18.7509127,3.14419355 18.7561509,3.17201403 18.7599605,3.20031417 C18.7618653,3.22093969 18.7656749,3.24156522 18.7675797,3.26027209 C18.7732941,3.30871809 18.7785322,3.35380645 18.780437,3.39697616 C18.7823418,3.40081346 18.7823418,3.40273212 18.7823418,3.40656942 C18.7842466,3.44782048 18.7861514,3.48715288 18.7880562,3.52264797 L18.7880562,3.54327349 L18.7880562,3.63105189 L18.7880562,3.64256381 C18.7861514,3.73226087 18.780437,3.7869425 18.780437,3.78838149 L18.7766275,6.22603086 L18.9032964,6.34258906 C19.0671088,6.49032539 19.1580628,6.69274334 19.1580628,6.90619355 L19.1580628,8.44303506 C19.1580628,8.77640112 18.9404399,9.07043478 18.6166246,9.17164376 L18.4270975,9.22968303 L18.3656678,9.41915007 C18.1109014,10.21731 17.7480379,10.9555119 17.2870774,11.6112118 C17.1732658,11.7723787 17.0637401,11.9167574 16.9670717,12.0251613 L16.871832,12.1340449 L16.871832,13.7174137 C16.871832,13.8147854 16.8832607,13.9102384 16.8980229,14.0037728 C16.8999277,14.0224797 16.9056421,14.0431052 16.9094517,14.0618121 C16.9242138,14.1390379 16.9446904,14.215784 16.9689765,14.2886928 C16.9742147,14.3054811 16.9799291,14.3222693 16.9875483,14.3395372 C17.0170726,14.419641 17.0504065,14.4987854 17.0913596,14.5716942 C17.0951692,14.5808079 17.1008836,14.5884825 17.1046932,14.5980757 C17.1604085,14.6954474 17.2237429,14.7889818 17.2961252,14.8753212 L17.3837457,14.9837251 L17.3985079,14.9837251 C17.5285102,15.1132342 17.6794652,15.2254755 17.8504206,15.3118149 L21.4890562,17.144129 C22.4024057,17.6031669 22.9676538,18.5269986 22.9676538,19.5539579 L22.9676538,20.3367686 Z M28.3006049,20.3367686 L23.7305243,20.3367686 L23.7305243,19.5539579 C23.7305243,18.2348836 23.0014639,17.048676 21.830967,16.4582104 L19.2175876,15.1410547 C19.2828269,14.9933184 19.290446,14.8244769 19.2342546,14.6594727 C19.1413958,14.3899018 18.897582,14.215784 18.6132912,14.215784 L17.7685144,14.215784 C17.7518475,14.1836466 17.7408949,14.1500701 17.7256565,14.1164937 C17.7070848,14.073324 17.6847034,14.0301543 17.6718461,13.9831473 C17.6475599,13.8972875 17.6347026,13.8090295 17.6347026,13.7174137 L17.6347026,12.4208836 C17.7223231,12.312 17.8132771,12.1901655 17.9080407,12.0553801 C18.38043,11.384331 18.7580557,10.6370154 19.0337748,9.82926227 C19.5709272,9.58223562 19.9209333,9.04597195 19.9209333,8.44303506 L19.9209333,6.90619355 C19.9209333,6.5373324 19.7833119,6.17950351 19.5394981,5.90033941 L19.5394981,3.85793268 C19.549022,3.76247966 19.5709272,3.44925947 19.5080689,3.03722861 C19.99903,2.84440393 20.5476111,2.74319495 21.1409549,2.73935764 C24.891021,2.76909677 25.0267377,6.50375596 25.0305473,6.66108555 C25.0881673,9.5707237 26.8386744,12.3887461 27.5901162,13.4641515 C27.6553555,13.5581655 27.6739272,13.6723254 27.6444029,13.782648 C27.6253549,13.8445245 27.5753541,13.9591641 27.4396374,14.019122 C26.7996261,14.2963675 25.9310393,14.2177027 25.8862767,14.215784 L23.265278,14.215784 C23.0200356,14.215784 22.7966984,14.3409762 22.6662199,14.5510687 C22.5381224,14.7592426 22.5266936,15.0158626 22.6347907,15.2350687 C22.7538405,15.4768191 22.9638442,15.8005919 23.3100407,15.9751893 L27.0248682,17.5940533 C27.8115487,17.9950519 28.3006049,18.7970491 28.3006049,19.6868247 L28.3006049,20.3367686 Z"/>
  </g>
</svg>
