<svg xmlns="http://www.w3.org/2000/svg" width="26" height="25" viewBox="0 0 26 25">
  <g fill-rule="evenodd" opacity=".5">
    <path d="M24.9499362 23.5294118L.901540079 23.5294118C.396227002 23.5294118 0 23.8700375 0 24.2642574 0 24.6593743.418758635 25 .901540079 25L24.9724678 25C25.4780557 25 25.8729088 24.6593743 25.8729088 24.2642574 25.8729088 23.8700375 25.4555241 23.5294118 24.9499362 23.5294118zM.0214325285 15.6998682L0 20.0061099C0 20.2487345.0879283223 20.4913591.264059743 20.6682901.440191163 20.8452211.658912865 20.9335486.901540079 20.9335486L5.16606371 20.9120188C5.40759182 20.9120188 5.62741262 20.8234153 5.80354404 20.6467603L20.5309885 5.85135188C20.8829765 5.49886995 20.8829765 4.92418915 20.5309885 4.54879727L16.310429.265189519C15.9584409-.0883965064 15.3874564-.0883965064 15.0140358.265189519L12.0687118 3.24651869.285492271 15.0594938C.131892483 15.2361488.0214325285 15.4572436.0214325285 15.6998682zM15.6729487 2.20811851L18.6408043 5.18944768 16.9707157 6.86711814 14.0028601 3.88578897 15.6729487 2.20811851zM1.84621999 16.097618L12.705093 5.18944768 15.6729487 8.17077684 4.81407564 19.0563132 1.82478746 19.0789471 1.84621999 16.097618z"/>
  </g>
</svg>
