<svg xmlns="http://www.w3.org/2000/svg" xmlns:xlink="http://www.w3.org/1999/xlink" width="24" height="26" viewBox="0 0 24 26">
  <defs>
    <polygon id="share-a" points=".003 25.548 23.221 25.548 23.221 .05 .003 .05"/>
  </defs>
  <g fill="none" fill-rule="evenodd">
    <mask id="share-b" fill="#fff">
      <use xlink:href="#share-a"/>
    </mask>
    <path fill="#0A0A08" d="M19.0362896,24.3626531 C17.3831206,24.3626531 16.0381171,23.018798 16.0381171,21.3669179 C16.0381171,19.7150379 17.3830707,18.3710832 19.0362896,18.3710832 C20.6894088,18.3710832 22.0344123,19.7150379 22.0344123,21.3669179 C22.0344123,23.018798 20.6894088,24.3626531 19.0362896,24.3626531 Z M4.18473211,15.7948795 C2.5316129,15.7948795 1.18660944,14.4509247 1.18660944,12.7990945 C1.18660944,11.1472145 2.53151322,9.80325976 4.18473211,9.80325976 C5.83790115,9.80325976 7.18290461,11.1472145 7.18290461,12.7990945 C7.18290461,14.4509247 5.83790115,15.7948795 4.18473211,15.7948795 Z M19.0362896,1.23543633 C20.6894088,1.23543633 22.0344123,2.57929145 22.0344123,4.23117148 C22.0344123,5.8830515 20.6894587,7.22700623 19.0362896,7.22700623 C17.3831206,7.22700623 16.0381171,5.8830515 16.0381171,4.23117148 C16.0381171,2.57929145 17.3831206,1.23543633 19.0362896,1.23543633 Z M19.0362896,17.1854488 C17.7033476,17.1854488 16.5149439,17.8121064 15.7480437,18.785236 L8.06792745,14.3546576 C8.26165859,13.8734714 8.36941437,13.3487583 8.36941437,12.7990945 C8.36941437,12.2493809 8.26165859,11.7246678 8.06792745,11.2434816 L15.7480437,6.81290323 C16.5149439,7.78603282 17.7033476,8.41269044 19.0362896,8.41269044 C21.3437685,8.41269044 23.2210217,6.53685116 23.2210217,4.23122128 C23.2210217,1.9255914 21.3437685,0.0497521222 19.0362896,0.0497521222 C16.7287609,0.0497521222 14.8515077,1.9255416 14.8515077,4.23117148 C14.8515077,4.78088512 14.9593133,5.30569779 15.1531441,5.78698359 L7.47312751,10.2176118 C6.70622733,9.24433277 5.51777378,8.61757555 4.18473211,8.61757555 C1.87725322,8.61757555 0,10.4934148 0,12.7990945 C0,15.1047244 1.87725322,16.9805637 4.18473211,16.9805637 C5.51777378,16.9805637 6.70622733,16.3538065 7.47312751,15.3805772 L15.1531441,19.8111556 C14.9593133,20.2923916 14.8515077,20.8172043 14.8515077,21.3669677 C14.8515077,23.6726972 16.7287609,25.5483871 19.0362896,25.5483871 C21.3437685,25.5483871 23.2210217,23.6725976 23.2210217,21.3669677 C23.2210217,19.0613379 21.3437685,17.1854488 19.0362896,17.1854488 L19.0362896,17.1854488 Z" mask="url(#share-b)"/>
    <path fill="#0A0A08" d="M4.18473211,11.0363554 C3.21203932,11.0363554 2.42071715,11.8270606 2.42071715,12.7989949 C2.42071715,13.1263928 2.6863187,13.391837 3.01397203,13.391837 C3.3416752,13.391837 3.60727675,13.1263928 3.60727675,12.7989949 C3.60727675,12.4808602 3.86629932,12.2219898 4.18473211,12.2219898 C4.51243528,12.2219898 4.77803683,11.9565456 4.77803683,11.6291975 C4.77803683,11.3017997 4.51243528,11.0363554 4.18473211,11.0363554"/>
  </g>
</svg>
