<svg xmlns="http://www.w3.org/2000/svg" width="30" height="21" viewBox="0 0 30 21">
  <path fill-rule="evenodd" d="M12.0946573,7.28472606 C12.2721963,7.46108993 12.2721963,7.74695598 12.0946573,7.92337618 C10.7594569,9.24973834 10.7594569,11.407844 12.0946573,12.7342625 C12.2721396,12.9106263 12.2721396,13.1964924 12.0946573,13.3727999 C12.0059161,13.46101 11.8895035,13.5051151 11.7732044,13.5051151 C11.6569052,13.5051151 11.5405494,13.4609537 11.4518082,13.3727999 C9.76209677,11.6943296 9.76209677,8.96325267 11.4518082,7.28472606 C11.6292906,7.1083622 11.9171182,7.1083622 12.0946573,7.28472606 Z M16.9376008,7.28472606 C17.1150832,7.1083622 17.4029108,7.1083622 17.5804498,7.28466974 C19.2701613,8.96319635 19.2701613,11.6942733 17.5804498,13.3727436 C17.4917087,13.4609537 17.3753528,13.5050587 17.2590537,13.5050587 C17.1427545,13.5050587 17.026342,13.4608974 16.9376008,13.3727436 C16.7601184,13.1964361 16.7601184,12.9105137 16.9376008,12.7342061 C18.2728012,11.407844 18.2728012,9.24973834 16.9376008,7.92331985 C16.7601184,7.74695598 16.7601184,7.46108993 16.9376008,7.28472606 Z M21.2419166,7.65429595 C22.3192855,10.3312978 21.6895917,13.3780948 19.6375441,15.4163338 C19.5488596,15.5045439 19.4324471,15.5485927 19.3161479,15.5485927 C19.1998488,15.5485927 19.0834929,15.5045439 18.9947518,15.4163338 C18.8172127,15.2400263 18.8172127,14.9541039 18.9947518,14.7777401 C20.7891381,12.9951751 21.3398437,10.3306218 20.397713,7.98956191 C20.3044922,7.75799633 20.4179561,7.49522487 20.6510648,7.40262117 C20.8842301,7.31001746 21.1487525,7.42273037 21.2419166,7.65429595 Z M19.4926663,6.4356898 C19.3388861,6.24220214 19.1713269,6.05519223 18.9947518,5.87978594 C18.8172694,5.70347841 18.8172127,5.41755602 18.9947518,5.24119216 C19.1723475,5.06482829 19.4600617,5.06482829 19.6376008,5.24119216 C19.8391822,5.44138289 20.0304435,5.65497975 20.2061681,5.87595562 C20.3618196,6.07164009 20.3281376,6.35564731 20.1311492,6.51021212 C20.0477382,6.57566559 19.9483367,6.60737842 19.8496724,6.60737842 C19.7153415,6.60737842 19.5823715,6.54857169 19.4926663,6.4356898 Z M7.63741179,3.49563489 C3.84456275,7.26343397 3.84456275,13.3941483 7.63741179,17.1619474 C7.81495086,17.3383113 7.81495086,17.6241774 7.63741179,17.8005412 C7.54867061,17.8887513 7.43231477,17.9328 7.31601562,17.9328 C7.19971648,17.9328 7.08330393,17.888695 6.99461946,17.8005412 C2.84720262,13.680634 2.84720262,6.97694831 6.99461946,2.8570411 C7.17204511,2.68067724 7.45987273,2.68067724 7.63741179,2.8570411 C7.81495086,3.03334864 7.81495086,3.31927102 7.63741179,3.49563489 Z M22.0376386,2.8570411 C26.1850554,6.97694831 26.1850554,13.680634 22.0376953,17.8004849 C21.9489541,17.888695 21.8325416,17.9327437 21.7162424,17.9327437 C21.5999433,17.9327437 21.4835874,17.8886387 21.3948463,17.8004849 C21.2173072,17.6241774 21.2173072,17.338255 21.3948463,17.1618911 C25.187752,13.394092 25.187752,7.26343397 21.3948463,3.49563489 C21.2173072,3.31927102 21.2173072,3.03340497 21.3948463,2.8570411 C21.5722719,2.68067724 21.8601563,2.68067724 22.0376386,2.8570411 Z M0.909129284,10.328763 C0.909129284,13.9392935 2.32450857,17.3336924 4.89448715,19.8867156 C5.07202621,20.0630795 5.07202621,20.3489456 4.89448715,20.5253094 C4.80580267,20.6134632 4.68939012,20.6575682 4.57309098,20.6575682 C4.45679183,20.6575682 4.34043599,20.6134069 4.25169481,20.5253094 C1.50990423,17.8016678 -3.29958283e-13,14.1805476 -3.29958283e-13,10.328763 C-3.29958283e-13,6.47703476 1.50990423,2.85591454 4.25169481,0.132272899 C4.42917717,-0.0440909663 4.71700479,-0.0440909663 4.89448715,0.132272899 C5.07202621,0.308580436 5.07202621,0.594502818 4.89448715,0.770866683 C2.32450857,3.32388994 0.909129284,6.71828882 0.909129284,10.328763 Z M24.7805633,0.132272899 C27.5223538,2.85591454 29.0322581,6.47703476 29.0322581,10.328763 C29.0322581,14.1805476 27.5223538,17.8016678 24.7805633,20.5253094 C24.6918221,20.6134632 24.5754662,20.6575682 24.4591671,20.6575682 C24.3428679,20.6575682 24.2264554,20.6134069 24.1377709,20.5253094 C23.9602319,20.3490019 23.9602319,20.0630795 24.1377709,19.8867156 C26.7077495,17.3336924 28.1231288,13.9392935 28.1231288,10.328763 C28.1231288,6.71828882 26.7077495,3.32388994 24.1377709,0.770866683 C23.9602319,0.594502818 23.9602319,0.308636764 24.1377709,0.132272899 C24.3151966,-0.0440909663 24.6030242,-0.0440909663 24.7805633,0.132272899 Z M15.8723664,9.63665734 C16.1198211,9.59424214 16.3548576,9.75922769 16.3975554,10.0049317 C16.4159274,10.1112232 16.4252835,10.2201621 16.4252835,10.328763 C16.4252835,11.374554 15.5688319,12.2253364 14.5160723,12.2253364 C13.4633128,12.2253364 12.6068611,11.374554 12.6068611,10.328763 C12.6068611,9.28302836 13.4633128,8.43218959 14.5160723,8.43218959 C14.6099735,8.43218959 14.7044418,8.43906164 14.796812,8.45263676 C15.0451739,8.48902483 15.2167591,8.7185626 15.1801285,8.96528049 C15.1434413,9.21199839 14.9121472,9.38256044 14.6640121,9.34605971 C14.6154738,9.33896235 14.565688,9.33535733 14.516129,9.33535733 C13.9646862,9.33535733 13.5160471,9.78097041 13.5160471,10.328763 C13.5160471,10.8765556 13.9646862,11.322225 14.516129,11.322225 C15.0675718,11.322225 15.5162109,10.8765556 15.5162109,10.328763 C15.5162109,10.2714771 15.5112777,10.2141349 15.5015814,10.1583699 C15.458997,9.91260962 15.6249118,9.67907254 15.8723664,9.63665734 Z M9.39465726,5.24119216 C9.57213962,5.06477196 9.86002394,5.06482829 10.0375063,5.24124849 C10.2150454,5.41755602 10.2150454,5.70347841 10.0375063,5.87984227 C8.24311996,7.6623509 7.69241431,10.3269042 8.63454511,12.6680204 C8.72776588,12.899586 8.61430192,13.1623574 8.3811933,13.2549612 C8.32585055,13.2769292 8.2686933,13.2873499 8.2125567,13.2873499 C8.03212576,13.2873499 7.86139113,13.1798755 7.79034148,13.0032864 C6.71297253,10.3262282 7.34272303,7.27948753 9.39465726,5.24119216 Z M9.53959173,14.2218925 C9.69337198,14.4153239 9.8609312,14.6023338 10.037563,14.7777964 C10.2150454,14.9541039 10.2151021,15.2400263 10.037563,15.4163902 C9.94876512,15.5046003 9.83240927,15.548649 9.71611013,15.548649 C9.59981099,15.548649 9.48351184,15.5045439 9.39471396,15.4163902 C9.19318926,15.2161994 9.00187122,15.0025462 8.82614667,14.7815704 C8.67055192,14.5858859 8.70417717,14.3018787 8.90116557,14.1473702 C9.09821069,13.9928054 9.38411038,14.0261517 9.53959173,14.2218925 Z"/>
</svg>
