<svg xmlns="http://www.w3.org/2000/svg" width="15" height="9" viewBox="0 0 15 9">
  <path fill-rule="evenodd" d="M11.7352941,3.88160677 L4.58823529,-2.71458774 C4.19117647,-3.09513742 3.52941176,-3.09513742 3.26470588,-2.71458774 C3.13235294,-2.58773784 3,-2.33403805 3,-2.08033827 C3,-1.82663848 3.13235294,-1.57293869 3.26470588,-1.44608879 L9.61764706,4.51585624 L3.26470588,10.4778013 C3.13235294,10.6046512 3,10.858351 3,11.1120507 C3,11.3657505 3.13235294,11.6194503 3.26470588,11.7463002 C3.39705882,11.8731501 3.66176471,12 3.92647059,12 C4.19117647,12 4.45588235,11.8731501 4.58823529,11.7463002 L11.7352941,5.15010571 C11.8676471,5.02325581 12,4.76955603 12,4.51585624 C12,4.26215645 11.8676471,4.00845666 11.7352941,3.88160677 Z" transform="rotate(-90 7.5 4.5)"/>
</svg>
