<svg xmlns="http://www.w3.org/2000/svg" width="22" height="35" viewBox="0 0 22 35">
  <defs>
    <linearGradient id="phone-a" x1="100%" x2="0%" y1="0%" y2="100%">
      <stop offset="0%" stop-color="#00BCF4"/>
      <stop offset="100%" stop-color="#013D9E"/>
    </linearGradient>
  </defs>
  <g fill="url(#phone-a)" fill-rule="evenodd">
    <path d="M19.1497059,0 L2.85029412,0 C1.27955882,0 0,1.15354167 0,2.56885417 L0,32.4311458 C0,33.8464583 1.27955882,35 2.85029412,35 L19.1497059,35 C20.7236765,35 22,33.8464583 22,32.4311458 L22,2.56885417 C22,1.15354167 20.7236765,0 19.1497059,0 Z M1.29573529,26.8340625 L20.7075,26.8340625 L20.7075,4.66520833 L1.29573529,4.66520833 L1.29573529,26.8340625 Z M2.85029412,1.168125 L19.1497059,1.168125 C20.0094853,1.168125 20.7075,1.79739583 20.7075,2.56885417 L20.7075,3.50072917 L1.29573529,3.50072917 L1.29573529,2.56885417 C1.29573529,1.79739583 1.99375,1.168125 2.85029412,1.168125 Z M19.1497059,33.831875 L2.85029412,33.831875 C1.99375,33.831875 1.29573529,33.2026042 1.29573529,32.4311458 L1.29573529,27.9985417 L20.7075,27.9985417 L20.7075,32.4311458 C20.7075,33.2026042 20.0094853,33.831875 19.1497059,33.831875 Z"/>
    <path d="M11,28.1590861 C9.69874514,28.1590861 8.64285714,29.2309558 8.64285714,30.5435862 C8.64285714,31.8599436 9.69874514,32.9318133 11,32.9318133 C12.3012549,32.9318133 13.3571429,31.8599436 13.3571429,30.5435862 C13.3571429,29.2309558 12.3012549,28.1590861 11,28.1590861 Z M11,31.7376998 C10.3493726,31.7376998 9.81958648,31.2017649 9.81958648,30.5435862 C9.81958648,29.8891345 10.3493726,29.3531996 11,29.3531996 C11.6506274,29.3531996 12.1774662,29.8891345 12.1774662,30.5435862 C12.1774662,31.2017649 11.6506274,31.7376998 11,31.7376998 Z"/>
  </g>
</svg>
