<svg xmlns="http://www.w3.org/2000/svg" width="50" height="37" viewBox="0 0 50 37">
  <g fill="#FFF" fill-rule="evenodd">
    <path d="M37.2983051,28.8532727 L30.8194915,25.641 C30.2101695,25.33575 29.829661,24.7277727 29.829661,24.0483182 L29.829661,21.7753409 C29.9855932,21.5844545 30.1474576,21.3708636 30.3161017,21.1345682 C31.1576271,19.9581364 31.8322034,18.648 32.3194915,17.2319091 C33.2762712,16.7988409 33.8983051,15.8587045 33.8983051,14.8016818 L33.8983051,12.1074091 C33.8983051,11.46075 33.6533898,10.8334318 33.2194915,10.3440227 L33.2194915,6.76343182 C33.259322,6.39511364 33.4084746,4.19109091 31.8025424,2.37472727 C30.409322,0.798022727 28.1516949,0 25.0864407,0 C22.020339,0 19.759322,0.798022727 18.3661017,2.37472727 C17.3957627,3.47547727 17.0686441,4.71665909 16.9686441,5.60718182 C15.8067797,5.01265909 14.4364407,4.71077273 12.8805085,4.71077273 C5.83983051,4.71077273 5.42881356,10.6660909 5.4220339,10.7644773 L5.4220339,13.8455682 C4.98559322,14.3181591 4.74745763,14.8672727 4.74745763,15.4121818 L4.74745763,17.7347727 C4.74745763,18.4604773 5.07457627,19.1374091 5.63389831,19.5940227 C6.1940678,21.6862045 7.57118644,23.2696364 8.10338983,23.8246364 L8.10338983,25.6670682 C8.10338983,26.1993636 7.81610169,26.6820455 7.31271186,26.9587045 L2.80084746,29.7639773 C1.07288136,30.6999091 0,32.4935682 0,34.4444773 L0,37 L40.6779661,37 L40.6779661,34.2805 C40.6779661,31.968 39.3838983,29.8884318 37.2983051,28.8532727 Z M9.49067797,34.1484773 L9.49067797,35.6528636 L1.35762712,35.6528636 L1.35762712,34.4444773 C1.35762712,32.9863409 2.15847458,31.6459318 3.48559322,30.9261136 L7.99491525,28.1183182 C8.89830508,27.6280682 9.46101695,26.6921364 9.46101695,25.6670682 L9.46101695,23.2528182 L9.24576271,23.0526818 C9.22627119,23.0367045 7.42542373,21.3481591 6.89237288,19.0482727 L6.83220339,18.7791818 L6.60084746,18.6311818 C6.28983051,18.4310455 6.10084746,18.0963636 6.10084746,17.7347727 L6.10084746,15.4121818 C6.10084746,15.1691591 6.26694915,14.8798864 6.55762712,14.6208864 L6.77966102,14.4232727 L6.77966102,10.804 C6.78983051,10.60975 7.1440678,6.05370455 12.8805085,6.05370455 C14.5025424,6.05370455 15.870339,6.42538636 16.9491525,7.16118182 L16.9491525,10.3440227 C16.5152542,10.8334318 16.270339,11.46075 16.270339,12.1074091 L16.270339,14.8016818 C16.270339,15.0051818 16.2940678,15.2053182 16.3398305,15.3987273 C16.3567797,15.4777727 16.3932203,15.5500909 16.4194915,15.6257727 C16.4559322,15.7376136 16.4855932,15.8553409 16.5389831,15.9604545 C16.5389831,15.9638182 16.5423729,15.9638182 16.5423729,15.9638182 C16.7144068,16.3186818 16.9686441,16.6373864 17.2864407,16.8905 C17.2898305,16.9039545 17.2932203,16.9165682 17.2966102,16.9266591 C17.3364407,17.0805455 17.379661,17.2352727 17.4254237,17.3866364 L17.4822034,17.5607045 C17.4923729,17.5935 17.5016949,17.6229318 17.5118644,17.6557273 C17.5347458,17.7280455 17.5584746,17.8003636 17.5847458,17.8693182 C17.6245763,17.9878864 17.6677966,18.1089773 17.7169492,18.2435227 C17.7372881,18.2965 17.7601695,18.3486364 17.7830508,18.4016136 C17.8364407,18.5428864 17.8923729,18.6774318 17.9525424,18.8119773 C17.9652542,18.8447727 17.9788136,18.8809318 17.9915254,18.9103636 L18.0313559,18.9961364 C18.0483051,19.0356591 18.0677966,19.0718182 18.0847458,19.1079773 C18.1508475,19.2526136 18.2169492,19.3930455 18.2830508,19.5284318 C18.2932203,19.5477727 18.3033898,19.5704773 18.3161017,19.5940227 C18.359322,19.6755909 18.3991525,19.758 18.4423729,19.8370455 C18.5152542,19.9749545 18.5881356,20.1061364 18.6610169,20.2339545 C18.6966102,20.2936591 18.7305085,20.3558864 18.7635593,20.41475 C18.8627119,20.5795682 18.9550847,20.7300909 19.0449153,20.8713636 C19.0644068,20.9041591 19.0847458,20.9344318 19.1042373,20.9638636 C19.2661017,21.2161364 19.4084746,21.4204773 19.5279661,21.5810909 C19.5576271,21.6206136 19.5838983,21.6601364 19.6110169,21.6929318 C19.6271186,21.7122727 19.6474576,21.7417045 19.6601695,21.7585227 L19.6601695,23.98525 C19.6601695,24.6361136 19.3025424,25.234 18.7271186,25.5459773 L16.9322034,26.5180682 L16.6211864,26.4886364 L16.4923729,26.7543636 L12.6788136,28.8204773 C10.7127119,29.8850682 9.49067797,31.9251136 9.49067797,34.1484773 Z M39.320339,35.6528636 L10.8483051,35.6528636 L10.8483051,34.1484773 C10.8483051,32.42125 11.7983051,30.8310909 13.3279661,30.0036364 L19.3754237,26.7282955 C20.3889831,26.1800227 21.0177966,25.1288864 21.0177966,23.98525 L21.0177966,21.2825682 L20.8855932,21.1278409 L20.8584746,21.0950455 C20.8584746,21.0950455 20.8152542,21.0420682 20.7457627,20.9537727 C20.7432203,20.9504091 20.7398305,20.9436818 20.7364407,20.9369545 C20.7,20.8915455 20.6567797,20.8352045 20.6101695,20.7696136 C20.6067797,20.7696136 20.6067797,20.76625 20.6067797,20.76625 C20.5042373,20.6283409 20.3788136,20.4441818 20.2364407,20.2280682 C20.2330508,20.2247045 20.2330508,20.2179773 20.229661,20.2146136 C20.1635593,20.1095 20.090678,19.9976591 20.0211864,19.8799318 C20.0144068,19.8698409 20.0076271,19.8631136 20.0042373,19.8530227 C19.8491525,19.5973864 19.6864407,19.3081136 19.5245763,18.9894091 C19.5245763,18.9894091 19.5245763,18.9894091 19.5245763,18.9860455 C19.4389831,18.8153409 19.3525424,18.6345455 19.2694915,18.4478636 C19.2567797,18.4209545 19.2432203,18.3948864 19.2330508,18.3688182 C19.1966102,18.2864091 19.1567797,18.1981136 19.120339,18.1056136 C19.1076271,18.0728182 19.0940678,18.0400227 19.0813559,18.0072273 C19.0449153,17.9189318 19.0084746,17.8297955 18.9720339,17.7280455 C18.9025424,17.5438864 18.8364407,17.3538409 18.7728814,17.1562273 L18.7364407,17.0385 C18.7330508,17.0216818 18.7271186,17.0090682 18.7237288,16.9956136 C18.6610169,16.7820227 18.5974576,16.5650682 18.5483051,16.3422273 L18.4847458,16.0756591 L18.2533898,15.9276591 C17.8627119,15.6753864 17.6279661,15.2549318 17.6279661,14.8016818 L17.6279661,12.1074091 C17.6279661,11.7332045 17.7898305,11.3783409 18.0813559,11.1159773 L18.3067797,10.915 L18.3067797,6.49097727 L18.2864407,6.47415909 C18.2635593,5.98811364 18.2932203,4.50054545 19.3855932,3.26188636 C20.5110169,1.99043182 22.4279661,1.34713636 25.0864407,1.34713636 C27.7313559,1.34713636 29.6440678,1.98370455 30.770339,3.24843182 C32.090678,4.73011364 31.8720339,6.62215909 31.8686441,6.63897727 L31.8661017,10.915 L32.0872881,11.1193409 C32.3822034,11.3783409 32.540678,11.7332045 32.540678,12.1074091 L32.540678,14.8016818 C32.540678,15.3861136 32.1533898,15.9015909 31.5779661,16.0790227 L31.2398305,16.1807727 L31.1305085,16.5129318 C30.6771186,17.9122045 30.0322034,19.2063636 29.2110169,20.3558864 C29.0084746,20.6384318 28.8135593,20.8915455 28.6449153,21.0815909 L28.4762712,21.2724773 L28.4762712,24.0483182 C28.4762712,25.2407273 29.1415254,26.3112045 30.2135593,26.8435 L36.6923729,30.0557727 C38.3144068,30.8605227 39.320339,32.4801136 39.320339,34.2805 L39.320339,35.6528636 Z"/>
    <path d="M46.9610169,29.6319545 L40.3338983,26.7871591 C40.1779661,26.7089545 40.0059322,26.5180682 39.8567797,26.2683182 L44.2830508,26.2649545 C44.359322,26.2716818 46.1830508,26.4365 47.6466102,25.8117045 C48.1991525,25.5754091 48.609322,25.1087045 48.7754237,24.531 C48.9440678,23.9465682 48.8381356,23.3285 48.4872881,22.8323636 C47.2228814,21.0487955 44.2728814,16.3809091 44.1805085,11.6507955 C44.1771186,11.5692273 43.9084746,3.52172727 35.9008475,3.45529545 C34.7228814,3.46538636 33.6338983,3.66552273 32.640678,4.03047727 C32.4254237,3.48220455 32.1076271,2.91375 31.6305085,2.37472727 C30.240678,0.798022727 27.979661,0 24.9135593,0 C21.8483051,0 19.590678,0.798022727 18.1974576,2.37472727 C16.5915254,4.19109091 16.740678,6.39511364 16.7805085,6.76343182 L16.7805085,10.3440227 C16.3466102,10.8334318 16.1016949,11.46075 16.1016949,12.1074091 L16.1016949,14.7983182 C16.1016949,15.6190455 16.4754237,16.3809091 17.1177966,16.8905 C17.7372881,19.3308182 19.0381356,21.1707273 19.4915254,21.7585227 L19.4915254,23.98525 C19.4915254,24.6361136 19.1338983,25.234 18.5576271,25.5459773 L12.5101695,28.8204773 C10.5432203,29.8850682 9.3220339,31.9251136 9.3220339,34.1484773 L9.3220339,37 L50,37 L50,34.5134318 C50,32.4338636 48.8347458,30.5653636 46.9610169,29.6319545 Z M39.1516949,35.6528636 L10.679661,35.6528636 L10.679661,34.1484773 C10.679661,32.42125 11.629661,30.8310909 13.1584746,30.0036364 L19.2067797,26.7282955 C20.2194915,26.1800227 20.8491525,25.1288864 20.8491525,23.98525 L20.8491525,21.2825682 L20.6898305,21.0950455 C20.6737288,21.0748636 19.0118644,19.0810682 18.379661,16.3422273 L18.3161017,16.0756591 L18.0847458,15.9276591 C17.690678,15.6753864 17.459322,15.2549318 17.459322,14.8016818 L17.459322,12.1074091 C17.459322,11.7332045 17.6177966,11.3783409 17.9127119,11.1159773 L18.1338983,10.915 L18.1338983,6.72727273 L18.1313559,6.63897727 C18.1279661,6.62215909 17.8957627,4.75618182 19.2169492,3.26188636 C20.3423729,1.99043182 22.259322,1.34713636 24.9135593,1.34713636 C27.5618644,1.34713636 29.4754237,1.98370455 30.6008475,3.24843182 C31.1610169,3.87575 31.4423729,4.57538636 31.5813559,5.17663636 C31.590678,5.22288636 31.6042373,5.26913636 31.6110169,5.31790909 C31.620339,5.36415909 31.6305085,5.41377273 31.640678,5.45918182 C31.6474576,5.51215909 31.6567797,5.56093182 31.6635593,5.61054545 C31.6669492,5.64670455 31.6737288,5.68286364 31.6771186,5.71565909 C31.6872881,5.80059091 31.6966102,5.87963636 31.7,5.95531818 C31.7033898,5.96204545 31.7033898,5.96540909 31.7033898,5.97213636 C31.7067797,6.04445455 31.7101695,6.11340909 31.7135593,6.17563636 L31.7135593,6.21179545 L31.7135593,6.36568182 L31.7135593,6.38586364 C31.7101695,6.54311364 31.7,6.63897727 31.7,6.6415 L31.6932203,10.915 L31.9186441,11.1193409 C32.2101695,11.3783409 32.3720339,11.7332045 32.3720339,12.1074091 L32.3720339,14.8016818 C32.3720339,15.3861136 31.9847458,15.9015909 31.4084746,16.0790227 L31.0711864,16.1807727 L30.9618644,16.5129318 C30.5084746,17.9122045 29.8627119,19.2063636 29.0423729,20.3558864 C28.8398305,20.6384318 28.6449153,20.8915455 28.4728814,21.0815909 L28.3033898,21.2724773 L28.3033898,24.0483182 C28.3033898,24.2190227 28.3237288,24.3863636 28.35,24.5503409 C28.3533898,24.5831364 28.3635593,24.6192955 28.370339,24.6520909 C28.3966102,24.7874773 28.4330508,24.9220227 28.4762712,25.0498409 C28.4855932,25.0792727 28.4957627,25.1087045 28.509322,25.1389773 C28.5618644,25.2794091 28.6211864,25.4181591 28.6940678,25.5459773 C28.7008475,25.5619545 28.7110169,25.5754091 28.7177966,25.5922273 C28.8169492,25.7629318 28.929661,25.9269091 29.0584746,26.0782727 L29.2144068,26.2683182 L29.240678,26.2683182 C29.4720339,26.4953636 29.740678,26.6921364 30.0449153,26.8435 L36.520339,30.0557727 C38.1457627,30.8605227 39.1516949,32.4801136 39.1516949,34.2805 L39.1516949,35.6528636 Z M48.6423729,35.6528636 L40.509322,35.6528636 L40.509322,34.2805 C40.509322,31.968 39.2118644,29.8884318 37.1288136,28.8532727 L32.4779661,26.5441364 C32.5940678,26.2851364 32.6076271,25.9891364 32.5076271,25.6998636 C32.3423729,25.2272727 31.9084746,24.9220227 31.4025424,24.9220227 L29.8991525,24.9220227 C29.8694915,24.8656818 29.85,24.8068182 29.8228814,24.7479545 C29.7898305,24.6722727 29.75,24.5965909 29.7271186,24.5141818 C29.6838983,24.3636591 29.6610169,24.2089318 29.6610169,24.0483182 L29.6610169,21.7753409 C29.8169492,21.5844545 29.9788136,21.3708636 30.1474576,21.1345682 C30.9881356,19.9581364 31.6601695,18.648 32.1508475,17.2319091 C33.1067797,16.7988409 33.729661,15.8587045 33.729661,14.8016818 L33.729661,12.1074091 C33.729661,11.46075 33.4847458,10.8334318 33.0508475,10.3440227 L33.0508475,6.76343182 C33.0677966,6.59609091 33.1067797,6.04697727 32.9949153,5.32463636 C33.8686441,4.98659091 34.8449153,4.80915909 35.9008475,4.80243182 C42.5745763,4.85456818 42.8161017,11.4018864 42.8228814,11.6777045 C42.9254237,16.7786591 46.040678,21.719 47.3779661,23.6043182 C47.4940678,23.7691364 47.5271186,23.9692727 47.4745763,24.1626818 C47.440678,24.2711591 47.3516949,24.4721364 47.1101695,24.57725 C45.9711864,25.0632955 44.4254237,24.9253864 44.3457627,24.9220227 L39.6813559,24.9220227 C39.2449153,24.9220227 38.8474576,25.1415 38.6152542,25.5098182 C38.3872881,25.8747727 38.3669492,26.3246591 38.559322,26.7089545 C38.7711864,27.1327727 39.1449153,27.7003864 39.7610169,28.0064773 L46.3720339,30.8445455 C47.7720339,31.5475455 48.6423729,32.9535455 48.6423729,34.5134318 L48.6423729,35.6528636 Z"/>
  </g>
</svg>
