<svg xmlns="http://www.w3.org/2000/svg" width="15" height="9" viewBox="0 0 15 9">
  <path fill="#FFF" fill-rule="evenodd" d="M8.11839323,8.73529412 L14.7145877,1.58823529 C15.0951374,1.19117647 15.0951374,0.529411765 14.7145877,0.264705882 C14.5877378,0.132352941 14.3340381,2.66453526e-15 14.0803383,2.66453526e-15 C13.8266385,2.66453526e-15 13.5729387,0.132352941 13.4460888,0.264705882 L7.48414376,6.61764706 L1.52219873,0.264705882 C1.39534884,0.132352941 1.14164905,0 0.88794926,0 C0.634249471,0 0.380549683,0.132352941 0.253699789,0.264705882 C0.126849894,0.397058824 0,0.661764706 0,0.926470588 C0,1.19117647 0.126849894,1.45588235 0.253699789,1.58823529 L6.84989429,8.73529412 C6.97674419,8.86764706 7.23044397,9 7.48414376,9"/>
</svg>
