<svg xmlns="http://www.w3.org/2000/svg" xmlns:xlink="http://www.w3.org/1999/xlink" width="40" height="30" viewBox="0 0 40 30">
  <defs>
    <path id="add-bg-a" d="M31.853449,14.5235222 C27.9540857,14.5235222 24.7817143,17.7344667 24.7817143,21.6810444 C24.7817143,25.6282667 27.9540857,28.8392111 31.853449,28.8392111 C35.7529714,28.8392111 38.9253429,25.6282667 38.9253429,21.6810444 C38.9253429,17.7344667 35.753449,14.5235222 31.853449,14.5235222 Z M31.853449,27.8164778 C28.5112286,27.8164778 25.7920531,25.0643778 25.7920531,21.6816889 C25.7920531,18.2983556 28.5112286,15.5462556 31.853449,15.5462556 C35.1963061,15.5462556 37.9156408,18.2983556 37.9156408,21.6816889 C37.9156408,25.0643778 35.1963061,27.8164778 31.853449,27.8164778 Z"/>
    <polygon id="add-bg-b" points="32.359 17.592 31.349 17.592 31.349 21.17 27.812 21.17 27.812 22.193 31.349 22.193 31.349 25.772 32.359 25.772 32.359 22.193 35.895 22.193 35.895 21.17 32.359 21.17"/>
  </defs>
  <g fill="none" fill-rule="evenodd">
    <path fill="#000" d="M22.5478367,23.0144537 L1.8674898,23.0144537 L1.8674898,17.8285556 L6.16226531,13.4820463 L11.8931429,17.7361852 C12.216551,17.9765093 12.6630612,17.9534167 12.9586122,17.6787222 L21.9394898,9.37962037 L25.5977959,14.5622963 C25.8673469,14.9452037 26.3937143,15.0332778 26.7720408,14.7593889 C27.1503673,14.4868426 27.238449,13.9538333 26.9678367,13.5711944 L22.7582245,7.60712963 C22.6184082,7.40788889 22.4019184,7.27980556 22.1623469,7.25456481 C21.9251633,7.22932407 21.6834694,7.308 21.5062449,7.47287037 L12.333551,15.9489259 L6.57561224,11.6757222 C6.24,11.4270741 5.77571429,11.462787 5.48228571,11.7605741 L1.8674898,15.4183333 L1.8674898,1.71126852 L30.4926939,1.71126852 L30.4926939,11.8258241 C30.4926939,12.2968056 30.868898,12.6775648 31.3339796,12.6775648 C31.7993265,12.6775648 32.1765918,12.2968056 32.1765918,11.8258241 L32.1765918,0.859527778 C32.1765918,0.388546296 31.8003878,0.00778703704 31.3339796,0.00778703704 L1.02593878,0.00778703704 C0.560591837,0.00778703704 0.184387755,0.388546296 0.184387755,0.859527778 L0.184387755,23.8659259 C0.184387755,24.3369074 0.560591837,24.7187407 1.02593878,24.7187407 L22.5478367,24.7187407 C23.0131837,24.7187407 23.3893878,24.3369074 23.3893878,23.8659259 C23.3893878,23.395213 23.0131837,23.0144537 22.5478367,23.0144537 Z"/>
    <use fill="#000" xlink:href="#add-bg-a"/>
    <path stroke="#000" stroke-width=".2" d="M31.853449,14.4235222 C35.8087303,14.4235222 39.0253429,17.6792847 39.0253429,21.6810444 C39.0253429,25.6831816 35.8085165,28.9392111 31.853449,28.9392111 C27.8985156,28.9392111 24.6817143,25.6831563 24.6817143,21.6810444 C24.6817143,17.6794758 27.8986156,14.4235222 31.853449,14.4235222 Z M31.853449,27.7164778 C35.1407406,27.7164778 37.8156408,25.0094836 37.8156408,21.6816889 C37.8156408,18.3533479 35.1408376,15.6462556 31.853449,15.6462556 C28.5666313,15.6462556 25.8920531,18.3534146 25.8920531,21.6816889 C25.8920531,25.0094169 28.5667283,27.7164778 31.853449,27.7164778 Z"/>
    <use fill="#000" xlink:href="#add-bg-b"/>
    <path stroke="#000" stroke-width=".2" d="M32.4590163,21.07 L35.8946449,21.07 L35.9946449,21.17 L35.9946449,22.1927333 L35.8946449,22.2927333 L32.4590163,22.2927333 L32.4590163,25.7718167 L32.3590163,25.8718167 L31.3486776,25.8718167 L31.2486776,25.7718167 L31.2486776,22.2927333 L27.8124122,22.2927333 L27.7124122,22.1927333 L27.7124122,21.17 L27.8124122,21.07 L31.2486776,21.07 L31.2486776,17.5915611 L31.3486776,17.4915611 L32.3590163,17.4915611 L32.4590163,17.5915611 L32.4590163,21.07 Z"/>
    <path fill="#000" d="M6.07710204,6.82466667 C6.07710204,8.7042963 7.58722449,10.2324352 9.44542857,10.2324352 C11.3025714,10.2324352 12.8124286,8.7042963 12.8124286,6.82466667 C12.8124286,4.94396296 11.3025714,3.41555556 9.44542857,3.41555556 C7.58722449,3.41555556 6.07710204,4.94396296 6.07710204,6.82466667 Z M11.1282653,6.82466667 C11.1282653,7.76340741 10.3729388,8.52787963 9.44542857,8.52787963 C8.51685714,8.52787963 7.76126531,7.76340741 7.76126531,6.82466667 C7.76126531,5.88485185 8.51685714,5.12011111 9.44542857,5.12011111 C10.3729388,5.12011111 11.1282653,5.88485185 11.1282653,6.82466667 Z"/>
  </g>
</svg>
