<svg xmlns="http://www.w3.org/2000/svg" width="52" height="37" viewBox="0 0 52 37">
  <path fill="#FFF" fill-rule="evenodd" d="M21.662875,13.0477538 C21.9808672,13.3636411 21.9808672,13.8756589 21.662875,14.1916471 C19.2713828,16.5673091 19.2713828,20.4327161 21.662875,22.808479 C21.9807656,23.1243663 21.9807656,23.6363841 21.662875,23.9521705 C21.5039297,24.1101646 21.2954219,24.1891617 21.0871172,24.1891617 C20.8788125,24.1891617 20.6704062,24.1100637 20.5114609,23.9521705 C17.485,20.9458438 17.485,16.0541815 20.5114609,13.0477538 C20.8293516,12.7318665 21.3448828,12.7318665 21.662875,13.0477538 Z M30.337125,13.0477538 C30.6550156,12.7318665 31.1705469,12.7318665 31.4885391,13.0476529 C34.515,16.0540806 34.515,20.9457429 31.4885391,23.9520696 C31.3295937,24.1100637 31.1211875,24.1890608 30.9128828,24.1890608 C30.7045781,24.1890608 30.4960703,24.1099628 30.337125,23.9520696 C30.0192344,23.6362833 30.0192344,23.1241645 30.337125,22.8083781 C32.7286172,20.4327161 32.7286172,16.5673091 30.337125,14.1915462 C30.0192344,13.8756589 30.0192344,13.3636411 30.337125,13.0477538 Z M38.0466328,13.7096945 C39.9763203,18.5045022 38.8484688,23.9616542 35.1730234,27.6123668 C35.0141797,27.7703609 34.8056719,27.8492571 34.5973672,27.8492571 C34.3890625,27.8492571 34.1806563,27.7703609 34.0217109,27.6123668 C33.7037188,27.2965804 33.7037188,26.7844617 34.0217109,26.4685744 C37.2356563,23.2758025 38.2220313,18.5032915 36.5345703,14.3101931 C36.3676016,13.8954334 36.5708281,13.4247805 36.9883516,13.258917 C37.4059766,13.0930535 37.8797656,13.2949348 38.0466328,13.7096945 Z M34.9135313,11.5270355 C34.6380938,11.1804776 34.3379766,10.8455221 34.0217109,10.5313499 C33.7038203,10.2155635 33.7037188,9.70344479 34.0217109,9.38755751 C34.3398047,9.07167023 34.8551328,9.07167023 35.173125,9.38755751 C35.5341797,9.74612135 35.87675,10.1286971 36.1914922,10.5244894 C36.4702813,10.874982 36.4099531,11.3836705 36.057125,11.6605133 C35.9077266,11.7777477 35.7296875,11.8345489 35.5529688,11.8345489 C35.3123672,11.8345489 35.0742031,11.7292195 34.9135313,11.5270355 Z M13.6794531,6.26107049 C6.88603906,13.0096173 6.88603906,23.9904079 13.6794531,30.7389547 C13.9974453,31.054842 13.9974453,31.5668599 13.6794531,31.8827472 C13.5205078,32.0407412 13.3121016,32.1196374 13.1037969,32.1196374 C12.8954922,32.1196374 12.6869844,32.0406404 12.5281406,31.8827472 C5.09965625,24.5035356 5.09965625,12.4964896 12.5281406,5.11727806 C12.8459297,4.80139079 13.3614609,4.80139079 13.6794531,5.11727806 C13.9974453,5.43306445 13.9974453,5.94518321 13.6794531,6.26107049 Z M39.4718594,5.11727806 C46.9003437,12.4964896 46.9003437,24.5035356 39.4719609,31.8826463 C39.3130156,32.0406404 39.1045078,32.1195365 38.8962031,32.1195365 C38.6878984,32.1195365 38.4794922,32.0405395 38.3205469,31.8826463 C38.0025547,31.5668599 38.0025547,31.0547411 38.3205469,30.7388538 C45.1140625,23.990307 45.1140625,13.0096173 38.3205469,6.26107049 C38.0025547,5.94518321 38.0025547,5.43316534 38.3205469,5.11727806 C38.6383359,4.80139079 39.1539687,4.80139079 39.4718594,5.11727806 Z M1.62835156,18.4999622 C1.62835156,24.9668235 4.16345312,31.046569 8.76657031,35.6193173 C9.0845625,35.9352046 9.0845625,36.4472225 8.76657031,36.7631098 C8.60772656,36.921003 8.39921875,37 8.19091406,37 C7.98260937,37 7.77420312,36.9209021 7.61525781,36.7631098 C2.70440625,31.884765 0,25.3989363 0,18.4999622 C0,11.6010889 2.70440625,5.11526026 7.61525781,0.236915459 C7.93314844,-0.0789718196 8.44867969,-0.0789718196 8.76657031,0.236915459 C9.0845625,0.552701847 9.0845625,1.0648206 8.76657031,1.38070788 C4.16345312,5.95345621 1.62835156,12.0332017 1.62835156,18.4999622 Z M44.3847422,0.236915459 C49.2955938,5.11526026 52,11.6010889 52,18.4999622 C52,25.3989363 49.2955938,31.884765 44.3847422,36.7631098 C44.2257969,36.921003 44.0173906,37 43.8090859,37 C43.6007813,37 43.3922734,36.9209021 43.2334297,36.7631098 C42.9154375,36.4473234 42.9154375,35.9352046 43.2334297,35.6193173 C47.8365469,31.046569 50.3716484,24.9668235 50.3716484,18.4999622 C50.3716484,12.0332017 47.8365469,5.95345621 43.2334297,1.38070788 C42.9154375,1.0648206 42.9154375,0.552802737 43.2334297,0.236915459 C43.5512188,-0.0789718196 44.06675,-0.0789718196 44.3847422,0.236915459 Z M28.4291719,17.260324 C28.8723906,17.1843537 29.2933672,17.4798612 29.3698437,17.9199443 C29.40275,18.1103241 29.4195078,18.3054458 29.4195078,18.4999622 C29.4195078,20.37309 27.8855078,21.8969359 25.9998984,21.8969359 C24.1142891,21.8969359 22.5802891,20.37309 22.5802891,18.4999622 C22.5802891,16.6269352 24.1142891,15.1029885 25.9998984,15.1029885 C26.1680859,15.1029885 26.3372891,15.1152971 26.5027344,15.1396116 C26.9475781,15.2047867 27.2549062,15.6159143 27.1892969,16.0578135 C27.1235859,16.4997127 26.7093125,16.8052083 26.264875,16.7398314 C26.1779375,16.7271192 26.0887656,16.7206622 26,16.7206622 C25.0123047,16.7206622 24.2087422,17.5188048 24.2087422,18.4999622 C24.2087422,19.4811196 25.0123047,20.279363 26,20.279363 C26.9876953,20.279363 27.7912578,19.4811196 27.7912578,18.4999622 C27.7912578,18.3973568 27.7824219,18.2946506 27.7650547,18.1947693 C27.6887812,17.7545852 27.9859531,17.3362944 28.4291719,17.260324 Z M16.826875,9.38755751 C17.1447656,9.07156934 17.6603984,9.07167023 17.9782891,9.3876584 C18.2962812,9.70344479 18.2962812,10.2155635 17.9782891,10.5314508 C14.7643437,13.7241218 13.7779687,18.4966328 15.4654297,22.6898321 C15.6323984,23.1045918 15.4291719,23.5752447 15.0116484,23.7411082 C14.9125234,23.7804554 14.8101484,23.7991201 14.7096016,23.7991201 C14.3864297,23.7991201 14.080625,23.6066215 13.9533672,23.2903307 C12.0236797,18.4954221 13.1516328,13.038371 16.826875,9.38755751 Z M17.0864687,25.4729897 C17.3619062,25.8194467 17.6620234,26.1544023 17.9783906,26.4686753 C18.2962812,26.7844617 18.2963828,27.2965804 17.9783906,27.6124677 C17.8193437,27.7704618 17.6109375,27.8493579 17.4026328,27.8493579 C17.1943281,27.8493579 16.9860234,27.7703609 16.8269766,27.6124677 C16.4660234,27.2539039 16.1233516,26.8712273 15.8086094,26.4754349 C15.5299219,26.1249423 15.5901484,25.6162538 15.9429766,25.339512 C16.2959062,25.0626692 16.8079844,25.1223962 17.0864687,25.4729897 Z"/>
</svg>
