<svg xmlns="http://www.w3.org/2000/svg" width="14" height="22" viewBox="0 0 14 22">
  <g fill-rule="evenodd">
    <path d="M12.1861765,0 L1.81382353,0 C0.814264706,0 0,0.725083333 0,1.61470833 L0,20.3852917 C0,21.2749167 0.814264706,22 1.81382353,22 L12.1861765,22 C13.1877941,22 14,21.2749167 14,20.3852917 L14,1.61470833 C14,0.725083333 13.1877941,0 12.1861765,0 Z M0.824558824,16.867125 L13.1775,16.867125 L13.1775,2.93241667 L0.824558824,2.93241667 L0.824558824,16.867125 Z M1.81382353,0.73425 L12.1861765,0.73425 C12.7333088,0.73425 13.1775,1.12979167 13.1775,1.61470833 L13.1775,2.20045833 L0.824558824,2.20045833 L0.824558824,1.61470833 C0.824558824,1.12979167 1.26875,0.73425 1.81382353,0.73425 Z M12.1861765,21.26575 L1.81382353,21.26575 C1.26875,21.26575 0.824558824,20.8702083 0.824558824,20.3852917 L0.824558824,17.5990833 L13.1775,17.5990833 L13.1775,20.3852917 C13.1775,20.8702083 12.7333088,21.26575 12.1861765,21.26575 Z"/>
    <path d="M7,17.6999969 C6.17192873,17.6999969 5.5,18.3737436 5.5,19.1988256 C5.5,20.0262503 6.17192873,20.6999969 7,20.6999969 C7.82807127,20.6999969 8.5,20.0262503 8.5,19.1988256 C8.5,18.3737436 7.82807127,17.6999969 7,17.6999969 Z M7,19.9494113 C6.58596436,19.9494113 6.24882776,19.6125379 6.24882776,19.1988256 C6.24882776,18.787456 6.58596436,18.4505826 7,18.4505826 C7.41403564,18.4505826 7.74929666,18.787456 7.74929666,19.1988256 C7.74929666,19.6125379 7.41403564,19.9494113 7,19.9494113 Z"/>
  </g>
</svg>
