<svg xmlns="http://www.w3.org/2000/svg" width="23" height="24" viewBox="0 0 23 24">
  <g fill="#FFF" fill-rule="evenodd">
    <path d="M18.162657 14.3386199C17.6916121 13.8473263 17.1236517 13.5845895 16.5217678 13.5845895 15.9246174 13.5845895 15.3516807 13.8423392 14.8614591 14.333876L13.3271953 15.8664468C13.200847 15.798269 13.0747414 15.7350784 12.9533694 15.6718877 12.7786544 15.584248 12.613467 15.5015345 12.4726148 15.4138947 11.0356306 14.4992421 9.72966755 13.3070737 8.47710818 11.7647719 7.87024802 10.9959626 7.46249868 10.3487906 7.16641161 9.69219181 7.5643905 9.32727953 7.93348285 8.9475883 8.29262269 8.58267602 8.42874142 8.44656374 8.56455673 8.30546433 8.70061478 8.16910877 9.71995778 7.14753684 9.71995778 5.824 8.70061478 4.8021848L7.37498945 3.47390409C7.22473087 3.32307368 7.06919261 3.1674386 6.92366755 3.01186433 6.63231398 2.71014269 6.32651715 2.39869006 6.01101055 2.10669942 5.5399657 1.6396117 4.97673879 1.39159298 4.38456464 1.39159298 3.79214776 1.39159298 3.21945383 1.6396117 2.7339657 2.10669942L2.72425594 2.11643041 1.07341425 3.78541754C.452050132 4.40807953.0976437995 5.16709708.0199050132 6.04781287-.0964907652 7.46847719.320968338 8.79201404.641451187 9.65795088 1.42775989 11.7842339 2.60288391 13.7546386 4.35543536 15.8664468 6.48181266 18.4111018 9.04033509 20.4204912 11.9629736 21.8364117 13.0794749 22.3666901 14.5701055 22.9943392 16.2351478 23.1012585 16.337343 23.1062456 16.444029 23.1109895 16.5411873 23.1109895 17.6627256 23.1109895 18.6045119 22.7073965 19.3424538 21.9043462 19.347248 21.8946152 19.3569578 21.8898713 19.361934 21.8801404 19.6143879 21.5736749 19.9054987 21.2961591 20.2115383 20.9994854 20.4201161 20.7998784 20.6337309 20.5908444 20.8425515 20.3717754 21.3233061 19.8707509 21.5755172 19.2867696 21.5755172 18.6883743 21.5755172 18.0851743 21.3183298 17.5059368 20.8281082 17.0193871L18.162657 14.3386199zM12.4145383 5.54174035C13.6863351 5.75582222 14.8419789 6.3592655 15.7644063 7.28364912 16.6867731 8.20803275 17.2839235 9.36596023 17.5024538 10.6407813 17.5557968 10.9620257 17.8324644 11.1857778 18.1482137 11.1857778 18.1868707 11.1857778 18.2209763 11.1807906 18.259876 11.1760468 18.6190158 11.1176 18.8569657 10.7771368 18.7987071 10.4170292 18.5364828 8.87466667 17.8082507 7.46847719 16.6964828 6.35427836 15.584715 5.24001871 14.1815937 4.51019415 12.6425963 4.24745731 12.2834565 4.1892538 11.9485303 4.42754152 11.8852348 4.78272281 11.8221821 5.13790409 12.0551557 5.48329357 12.4145383 5.54174035zM22.959219 10.2271532C22.5273166 7.6875462 21.3327731 5.37643509 19.4977493 3.53709474 17.6627256 1.69805848 15.356657.501207018 12.8222876.0680561404 12.4678813.00486549708 12.1329551.248140351 12.0699024.603321637 12.0115831.963246784 12.2493509 1.29920936 12.6087335 1.3624 14.8711689 1.74677427 16.9344934 2.82204912 18.5753826 4.46178246 20.2162718 6.10625965 21.2844063 8.17409591 21.6680026 10.4414784 21.7213456 10.7624187 21.9979525 10.9862316 22.3135198 10.9862316 22.3523588 10.9862316 22.3865251 10.9814877 22.4251214 10.9765006 22.7797704 10.9230409 23.0225145 10.5823345 22.959219 10.2271532z"/>
  </g>
</svg>
