<svg xmlns="http://www.w3.org/2000/svg" width="33" height="22" viewBox="0 0 33 22">
  <g fill="none" fill-rule="evenodd">
    <path fill="#0A0A08" d="M19.4477329,10.1140624 L19.5290527,10.1140624 C19.7855958,10.1140624 19.993528,10.308779 19.993528,10.5490572 C19.993528,10.7892951 19.7855958,10.984052 19.5290527,10.984052 L19.4477329,10.984052 C19.1911898,10.984052 18.9832145,10.7892951 18.9832145,10.5490572 C18.9832145,10.308779 19.1911898,10.1140624 19.4477329,10.1140624 Z"/>
    <path fill="#0A0A08" d="M11.8645207,12.6728039 L13.1663271,12.6728039 C13.191279,11.4336397 14.2747243,10.4325745 15.6038528,10.4325745 C16.9330244,10.4325745 18.0164698,11.4336397 18.0414216,12.6728443 L25.6618246,12.6728443 C25.6666512,12.4323643 25.7112974,12.2010046 25.7899453,11.9840924 L21.3522626,11.9840924 C21.0957195,11.9840924 20.8877442,11.7893355 20.8877442,11.5490976 C20.8877442,11.3088193 21.0957195,11.1141027 21.3522626,11.1141027 L26.334189,11.1141027 C26.3436699,11.1141027 26.3529783,11.1148695 26.3622868,11.1154345 C26.8049131,10.6942817 27.4200045,10.4325745 28.0993503,10.4325745 C29.4285219,10.4325745 30.5119672,11.4336397 30.5369191,12.6728443 L32.0709632,12.6728443 L32.0709632,10.8240658 L31.676129,10.8240658 C31.4195859,10.8240658 31.2116106,10.6293493 31.2116106,10.389071 C31.2116106,10.1488331 31.4195859,9.95411655 31.676129,9.95411655 L32.0174826,9.95411655 C31.8691505,9.51335086 31.4286789,9.19284535 30.9096888,9.19284535 L30.830222,9.19284535 C29.7448374,9.19284535 28.8834594,8.45211523 28.6139879,8.07063215 L27.8575456,7.17989964 C27.8488836,7.16977034 27.8407387,7.15919713 27.833154,7.14834143 C27.3687649,6.48808071 26.6674408,6.08262631 26.3690527,6.08262631 L25.3934735,6.08262631 C25.8254554,6.61697703 26.3088062,7.21654268 26.6396016,7.70730917 C26.840811,8.0055383 26.8527913,8.38274366 26.6709745,8.69162671 C26.4890285,9.00075189 26.1417278,9.19280499 25.7646918,9.19280499 L15.3483871,9.19280499 C13.4273952,9.19280499 11.8645207,10.6563473 11.8645207,12.455246 L11.8645207,12.6728039 Z M15.6038528,14.1300104 C16.4362712,14.1300104 17.1135484,13.4958195 17.1135484,12.7163074 C17.1135484,11.9367954 16.4362712,11.3025642 15.6038528,11.3025642 C14.7714776,11.3025642 14.0942004,11.9367954 14.0942004,12.7163074 C14.0942004,13.4958195 14.7714776,14.1300104 15.6038528,14.1300104 Z M28.0993503,14.1300104 C28.9317686,14.1300104 29.6090459,13.4958195 29.6090459,12.7163074 C29.6090459,11.9367954 28.9317686,11.3025642 28.0993503,11.3025642 C27.266932,11.3025642 26.5896978,11.9367954 26.5896978,12.7163074 C26.5896978,13.4958195 27.266932,14.1300104 28.0993503,14.1300104 Z M24.2303029,6.08262631 L24.2303029,6.08266667 L21.6541845,6.08266667 C21.3564428,6.08266667 20.6573596,6.48646648 20.1929705,7.14434621 C19.9305234,7.53668499 19.2935829,8.25227346 19.2320005,8.32289606 L25.7646918,8.32289606 C25.8163624,8.32289606 25.8435552,8.29505058 25.8573024,8.27172494 C25.8709204,8.24856073 25.8814786,8.21248268 25.8540703,8.17184442 C25.5366774,7.70101367 24.3511406,6.23468684 24.2303029,6.08262631 Z M15.3483871,8.32289606 L18.0704675,8.32289606 C18.2854672,8.02700757 19.1783906,7.0229157 19.4083012,6.67851958 C19.4102404,6.67565432 19.4122228,6.67274871 19.4142051,6.66988345 C19.9110015,5.96345573 20.864904,5.21267702 21.6541845,5.21267702 L26.3690527,5.21267702 C27.1520413,5.21267702 28.0970663,5.95159113 28.5970948,6.65305509 L29.3552608,7.54576503 C29.3660776,7.55851746 29.3761618,7.57187522 29.3853841,7.58563653 C29.5304841,7.8026295 30.1522984,8.32289606 30.8302651,8.32289606 L30.9096888,8.32289606 C32.0622581,8.32289606 33,9.20099721 33,10.2803526 L33,13.1077988 C33,13.3480366 32.7920247,13.5427936 32.5354816,13.5427936 L30.3720817,13.5427936 C30.0176273,14.3945828 29.1328488,15 28.0993503,15 C27.0658518,15 26.1810733,14.3945828 25.826619,13.5428339 L17.8765842,13.5428339 C17.5221298,14.3945828 16.6373944,15 15.6038528,15 C14.5703543,15 13.685619,14.3945828 13.3311215,13.5428339 L11.4000023,13.5428339 C11.1434592,13.5428339 10.9354839,13.348077 10.9354839,13.1078391 L10.9354839,12.4553671 C10.9354839,10.1766786 12.9151278,8.32289606 15.3483871,8.32289606 Z"/>
    <path fill="#000" d="M8.12128276,4.04402198 C8.29882182,3.86765812 8.29882182,3.58173574 8.12128276,3.4054282 C7.9437437,3.22906433 7.65591608,3.22906433 7.47849042,3.4054282 C3.33107359,7.5253354 3.33107359,14.2290211 7.47849042,18.3489283 C7.5671749,18.4370821 7.68358745,18.4811871 7.79988659,18.4811871 C7.91618574,18.4811871 8.03254158,18.4371384 8.12128276,18.3489283 C8.29882182,18.1725644 8.29882182,17.8866984 8.12128276,17.7103345 C4.32843372,13.9425354 4.32843372,7.81182107 8.12128276,4.04402198"/>
    <path fill="#000" d="M1.39300025 10.8771501C1.39300025 7.26667591 2.80837954 3.87227704 5.37835811 1.31925378 5.55589718 1.14288991 5.55589718.856967532 5.37835811.680659996 5.20087576.504296131 4.91304814.504296131 4.73556578.680659996 1.9937752 3.40430163.483870968 7.02542186.483870968 10.8771501.483870968 14.7289347 1.9937752 18.3500549 4.73556578 21.0736965 4.82430696 21.161794 4.9406628 21.2059553 5.05696195 21.2059553 5.17326109 21.2059553 5.28967364 21.1618503 5.37835811 21.0736965 5.55589718 20.8973327 5.55589718 20.6114666 5.37835811 20.4351027 2.80837954 17.8820795 1.39300025 14.4876806 1.39300025 10.8771501M9.87852823 5.78957925C7.826594 7.82787463 7.1968435 10.8746153 8.27421245 13.5516735 8.3452621 13.7282626 8.51599672 13.835737 8.69642767 13.835737 8.75256426 13.835737 8.80972152 13.8253163 8.86506426 13.8033482 9.09817288 13.7107445 9.21163684 13.4479731 9.11841608 13.2164075 8.17628528 10.8752913 8.72699093 8.21073799 10.5213773 6.42822937 10.6989163 6.2518655 10.6989163 5.96594312 10.5213773 5.78963558 10.3438949 5.61321539 10.0560106 5.61315906 9.87852823 5.78957925M10.0234627 14.7702796C9.86798135 14.5745388 9.58208165 14.5411925 9.38503654 14.6957573 9.18804814 14.8502658 9.15442288 15.134273 9.31001764 15.3299575 9.48574219 15.5509333 9.67706023 15.7645865 9.87858493 15.9647773 9.96738281 16.052931 10.083682 16.0970361 10.1999811 16.0970361 10.3162802 16.0970361 10.4326361 16.0529874 10.521434 15.9647773 10.698973 15.7884134 10.6989163 15.502491 10.521434 15.3261835 10.3448022 15.1507209 10.1772429 14.963711 10.0234627 14.7702796"/>
  </g>
</svg>
