<svg xmlns="http://www.w3.org/2000/svg" width="18" height="16" viewBox="0 0 18 16">
  <path fill="#FFF" fill-rule="evenodd" d="M9.01750671,13.6982799 C8.50584261,13.6982799 8.1220418,13.2605572 8.1220418,12.7619988 C8.1220418,12.2513101 8.50580745,11.8257545 9.01750671,11.8257545 C9.4942958,11.8257545 9.90133489,12.2513101 9.90133489,12.7619988 C9.90133489,13.2605572 9.4942958,13.6982799 9.01750671,13.6982799 Z M9.00586999,4.73683751 C9.4594208,4.73683751 9.84322161,5.00436739 9.84322161,5.47851798 C9.84322161,6.9254878 9.68037785,9.00474417 9.68037785,10.4516772 C9.68037785,10.8286378 9.28497548,10.9867002 9.00586999,10.9867002 C8.63377621,10.9867002 8.31976056,10.8286378 8.31976056,10.4516772 C8.31976056,9.00474417 8.15698711,6.9254878 8.15698711,5.47851798 C8.15698711,5.00436739 8.52908089,4.73683751 9.00586999,4.73683751 Z M17.8415855,14.2513882 L9.94443646,0.557703132 C9.74485441,0.211619887 9.38650673,0 8.99996374,0 C8.6134559,0 8.25510821,0.211583129 8.05552617,0.557703132 L0.158412325,14.2513882 C-0.0469705025,14.6075433 -0.0530525342,15.0517723 0.142556855,15.4138824 C0.338166244,15.7760659 0.705127207,16 1.10284989,16 L16.8971127,16 C17.2948706,16 17.6618315,15.7760292 17.8574409,15.4138824 C18.0530503,15.0517356 18.0469683,14.6075433 17.8415855,14.2513882 L17.8415855,14.2513882 Z"/>
</svg>
