<svg xmlns="http://www.w3.org/2000/svg" width="39" height="13" viewBox="0 0 39 13">
  <path fill="#FFF" fill-rule="evenodd" d="M38.830786,7.26405835 C36.733786,0.117558346 19.700286,5.83458463e-05 19.700286,5.83458463e-05 C19.700286,5.83458463e-05 2.03278595,-0.0939416542 0.00628595026,7.26405835 C0.00628595026,7.26405835 -0.17771405,9.97005835 1.44528595,12.1930583 C1.60678595,12.4135583 2.22828595,12.2765583 2.44028595,12.2515583 C3.13378595,12.1695583 3.82078595,12.0195583 4.50178595,11.8685583 C6.13628595,11.5070583 7.75378595,11.0765583 9.37528595,10.6630583 C9.88678595,10.5325583 10.451786,10.4010583 10.725286,9.91405835 C10.882786,9.63305835 11.041286,9.33905835 11.137286,9.03155835 C11.477286,7.94005835 11.711786,7.00055835 12.134786,5.87305835 C12.134786,5.87305835 13.470786,4.73255835 19.417786,4.77305835 C25.737786,4.81605835 26.872786,5.76905835 26.872786,5.76905835 C27.043786,6.75705835 27.278786,7.73705835 27.609286,8.68355835 C27.752286,9.09355835 27.835286,9.54105835 28.057286,9.91955835 C28.280786,10.3005583 28.658786,10.3545583 29.058286,10.4840583 C29.951286,10.7740583 30.854786,11.0335583 31.761786,11.2750583 C33.329786,11.6920583 34.950286,12.1395583 36.570786,12.2915583 C36.740786,12.3075583 37.198286,12.4030583 37.335286,12.2455583 C38.856786,10.5050583 38.830786,7.26405835 38.830786,7.26405835 L38.830786,7.26405835 Z"/>
</svg>
