<svg xmlns="http://www.w3.org/2000/svg" width="22" height="17" viewBox="0 0 22 17">
  <g fill-rule="evenodd">
    <path d="M19.5108651.250412698C19.1973232-.0560730159 18.6866768-.0518634921 18.3687684.250412698L15.5026667 3.0135873C11.9512061 1.45924762 8.16250382 1.83934603 4.54856997 4.11443175 1.85695674 5.8070381.222407125 7.9354381.155231552 8.02610476-.0596743003 8.31111111-.0507175573 8.69962857.17756743 8.976 1.70933842 10.7894413 3.31242748 12.2012508 4.95156743 13.1855238L2.43030025 15.6162C2.11670229 15.9185302 2.11670229 16.4107746 2.43030025 16.7173143 2.58709924 16.8682095 2.79310433 16.9460317 2.99905344 16.9460317 3.20505852 16.9460317 3.41106361 16.8682095 3.56780662 16.7173143L19.5108651 1.35131111C19.8242392 1.04919683 19.8242392.556952381 19.5108651.250412698zM8.97773537 9.30401905C8.86118575 9.04934286 8.8030229 8.77297143 8.8030229 8.48375556 8.8030229 7.92680317 9.02694148 7.40018095 9.43889567 7.00302857 10.0837812 6.38109841 11.0376183 6.23435873 11.8259237 6.55816825L8.97773537 9.30401905zM13.0172265 5.41409524C11.552799 4.5073746 9.57778117 4.67138413 8.30138931 5.90191429 7.58479389 6.5927619 7.19534351 7.50811746 7.19534351 8.47954603 7.19534351 9.18744762 7.40571501 9.86545079 7.79538931 10.4483079L6.13391349 12.0500857C4.67844275 11.2382413 3.24530789 10.0380952 1.85259033 8.47091111 2.44821374 7.79733333 3.70669211 6.49766984 5.43092112 5.41409524 8.4133486 3.54037143 11.3824529 3.13458413 14.2757048 4.20088889L13.0172265 5.41409524zM21.7679644 7.99172698C20.6617506 6.67921905 19.5152316 5.57389524 18.350799 4.69734286 17.9970076 4.43403175 17.4910076 4.49453016 17.2132926 4.83118413 16.9401679 5.16810794 17.0029211 5.65592698 17.3521781 5.92366349 18.2747226 6.61866667 19.1973232 7.48215873 20.0929975 8.49239048 19.5644377 9.08814603 18.5345242 10.1588762 17.1372163 11.1389397 14.445827 13.0257238 11.7272875 13.7079365 9.06282443 13.1640444 8.62831043 13.0731619 8.19838677 13.3453238 8.1089313 13.7640095 8.01471756 14.1829111 8.2970229 14.5973333 8.73131298 14.6837905 9.42557252 14.8261048 10.1241985 14.8952381 10.8272468 14.8952381 11.8840865 14.8952381 12.949883 14.7354381 14.011313 14.416054 15.4040305 13.9971524 16.7880153 13.3063048 18.1268804 12.3652603 20.3840356 10.7721175 21.7321374 9.01480317 21.7903003 8.94140635 22.0052621 8.6564 21.9963053 8.26788254 21.7679644 7.99172698z"/>
  </g>
</svg>
