<svg xmlns="http://www.w3.org/2000/svg" width="145" height="79" viewBox="0 0 145 79">
  <g fill-rule="evenodd">
    <path d="M6.60751785 60.0432481L0 60.0432481 0 56.6816574 17.051659 56.6816574 17.051659 60.0432481 10.4441411 60.0432481 10.4441411 78.3180773 6.60751785 78.3180773 6.60751785 60.0432481zM19.6094078 56.6816574L33.8901722 56.6816574 33.8901722 60.0432481 23.4460311 60.0432481 23.4460311 65.5440328 33.3420832 65.5440328 33.3420832 68.7833838 23.4460311 68.7833838 23.4460311 74.8953668 34.4382612 74.8953668 34.4382612 78.3180773 19.6094078 78.3180773 19.6094078 56.6816574zM38.2444351 56.6816574L42.0810584 56.6816574 42.0810584 74.8953668 51.2463251 74.8953668 51.2463251 78.3180773 38.2444351 78.3180773 38.2444351 56.6816574zM53.8649727 56.6816574L68.1457371 56.6816574 68.1457371 60.0432481 57.701596 60.0432481 57.701596 65.5440328 67.597648 65.5440328 67.597648 68.7833838 57.701596 68.7833838 57.701596 74.8953668 68.6938261 74.8953668 68.6938261 78.3180773 53.8649727 78.3180773 53.8649727 56.6816574zM72.5 56.6816574L80.1427971 56.6816574C81.5434761 56.6816574 82.9542838 56.8650151 84.3752625 57.2317359 85.7962412 57.5984567 87.0751028 58.2045556 88.2118858 59.0500508 89.3486687 59.8955461 90.272291 61.0058785 90.9827803 62.3810816 91.6932697 63.7562846 92.048509 65.4625295 92.048509 67.4998674 92.048509 69.3945916 91.6932697 71.0244374 90.9827803 72.3894538 90.272291 73.7544702 89.3486687 74.8749892 88.2118858 75.7510445 87.0751028 76.6270997 85.7962412 77.2739448 84.3752625 77.6915991 82.9542838 78.1092533 81.5434761 78.3180773 80.1427971 78.3180773L72.5 78.3180773 72.5 56.6816574zM79.5338093 74.9564867C80.5284944 74.9564867 81.5231646 74.8393415 82.5178496 74.6050476 83.5125347 74.3707538 84.4107828 73.9734789 85.2126207 73.4132109 86.0144587 72.852943 86.6691141 72.0940461 87.1766065 71.1364973 87.6840989 70.1789485 87.9378412 68.9667506 87.9378412 67.4998674 87.9378412 65.9514906 87.6840989 64.6883601 87.1766065 63.7104379 86.6691141 62.7325157 86.0144587 61.9685255 85.2126207 61.4184443 84.4107828 60.868363 83.5125347 60.4914612 82.5178496 60.2877274 81.5231646 60.0839936 80.5284944 59.9821283 79.5338093 59.9821283L76.3366233 59.9821283 76.3366233 74.9564867 79.5338093 74.9564867zM94.7889542 67.4387475C94.7889542 65.7070104 95.0782205 64.143377 95.6567619 62.7478006 96.2353032 61.3522241 97.0371291 60.1654926 98.0622638 59.1875705 99.0873984 58.2096483 100.305362 57.4558446 101.716191 56.9261367 103.12702 56.3964289 104.664698 56.1315789 106.329273 56.1315789 108.014148 56.1315789 109.567052 56.3964289 110.98803 56.9261367 112.409009 57.4558446 113.637122 58.2096483 114.672407 59.1875705 115.707691 60.1654926 116.514592 61.3522241 117.093133 62.7478006 117.671674 64.143377 117.960941 65.7070104 117.960941 67.4387475 117.960941 69.129738 117.671674 70.6729982 117.093133 72.0685747 116.514592 73.4641511 115.707691 74.6661624 114.672407 75.6746447 113.637122 76.6831269 112.409009 77.4674902 110.98803 78.0277581 109.567052 78.588026 108.014148 78.8681558 106.329273 78.8681558 104.664698 78.8681558 103.12702 78.588026 101.716191 78.0277581 100.305362 77.4674902 99.0873984 76.6831269 98.0622638 75.6746447 97.0371291 74.6661624 96.2353032 73.4641511 95.6567619 72.0685747 95.0782205 70.6729982 94.7889542 69.129738 94.7889542 67.4387475zM98.9605208 67.4387475C98.9605208 68.6000301 99.1381405 69.6645232 99.4933851 70.6322587 99.8486298 71.5999942 100.356115 72.4403834 101.015855 73.1534517 101.675595 73.8665199 102.457121 74.4216862 103.360458 74.818967 104.263794 75.2162479 105.263539 75.4148854 106.359723 75.4148854 107.455906 75.4148854 108.460726 75.2162479 109.374213 74.818967 110.287699 74.4216862 111.0743 73.8665199 111.73404 73.1534517 112.39378 72.4403834 112.901265 71.5999942 113.25651 70.6322587 113.611755 69.6645232 113.789374 68.6000301 113.789374 67.4387475 113.789374 66.3182117 113.611755 65.279185 113.25651 64.3216362 112.901265 63.3640874 112.398855 62.5287914 111.749265 61.8157232 111.099675 61.1026549 110.318148 60.5423954 109.404662 60.1349278 108.491176 59.7274603 107.476206 59.5237295 106.359723 59.5237295 105.24324 59.5237295 104.233345 59.7274603 103.330008 60.1349278 102.426672 60.5423954 101.65022 61.1026549 101.00063 61.8157232 100.35104 62.5287914 99.8486298 63.3640874 99.4933851 64.3216362 99.1381405 65.279185 98.9605208 66.3182117 98.9605208 67.4387475zM121.736665 56.6816574L127.735195 56.6816574 133.337883 69.9743474 133.429231 69.9743474 138.971021 56.6816574 145 56.6816574 145 78.3180773 141.193826 78.3180773 141.193826 60.9294856 134.586308 76.23913 131.906762 76.23913 125.451491 60.9294856 125.390592 78.3180773 121.736665 78.3180773 121.736665 56.6816574zM58.0080893 8.59356238L58.0080893 41.6728916 47.9794282 41.6728916 47.9794282 8.59356238 36.25 8.59356238 36.25 0 69.9916147 0 69.9916147 8.59356238 58.0080893 8.59356238zM108.75 20.7187257C108.75 24.368065 108.075565 27.5170444 106.726674 30.1657584 105.377783 32.8144723 103.598837 34.9922712 101.389784 36.6992202 99.1807304 38.4061692 96.6882519 39.661837 93.9122733 40.4662612 91.1362948 41.2706855 88.3212601 41.6728916 85.467085 41.6728916L69.9842398 41.6728916 69.9842398 0 84.9979079 0C87.9302796 0 90.8235096.343346662 93.6776848 1.03005029 96.5318599 1.71675391 99.0732106 2.85470285 101.301813 4.44393123 103.530416 6.03315962 105.32891 8.16190892 106.69735 10.830243 108.06579 13.4985771 108.75 16.794705 108.75 20.7187257zM98.3108089 20.7187257C98.3108089 18.3643133 97.9296063 16.4121423 97.1671896 14.8621541 96.404773 13.3121659 95.3882327 12.076118 94.1175383 11.1539731 92.8468439 10.2318282 91.4002289 9.57456462 89.7776499 9.18216255 88.1550709 8.78976048 86.4836441 8.59356238 84.7633193 8.59356238L79.7783123 8.59356238 79.7783123 32.9616091 84.5287308 32.9616091C86.3272521 32.9616091 88.0573254 32.7556011 89.7190027 32.343579 91.38068 31.9315568 92.8468439 31.2546734 94.1175383 30.3129084 95.3882327 29.3711434 96.404773 28.1154756 97.1671896 26.5458674 97.9296063 24.9762591 98.3108089 23.033898 98.3108089 20.7187257z"/>
  </g>
</svg>
