<svg xmlns="http://www.w3.org/2000/svg" xmlns:xlink="http://www.w3.org/1999/xlink" width="40" height="40" viewBox="0 0 40 40">
  <defs>
    <rect id="meter-a" width="1.188" height="4.706" x="15.25" y="26.838"/>
    <rect id="meter-b" width="1.188" height="4.706" x="18.813" y="26.838"/>
    <rect id="meter-c" width="1.188" height="4.706" x="22.375" y="26.838"/>
  </defs>
  <g fill="none" fill-rule="evenodd">
    <path fill="#FFF" stroke="#28A6E0" stroke-width=".4" d="M38.9479403,19.6210163 C38.9479403,9.02453623 30.285516,0.404431584 19.6384341,0.404431584 C8.99071488,0.404431584 0.328927863,9.02453623 0.328927863,19.6210163 C0.328927863,30.2168622 8.99071488,38.8376011 19.6384341,38.8376011 C30.285516,38.8376011 38.9479403,30.2168622 38.9479403,19.6210163 Z M2.24077594,19.6210163 C2.24077594,10.073688 10.0449398,2.30707944 19.6384341,2.30707944 C29.2312911,2.30707944 37.0360922,10.073688 37.0360922,19.6210163 C37.0360922,29.1677105 29.2312911,36.9349532 19.6384341,36.9349532 C10.0449398,36.9349532 2.24077594,29.1677105 2.24077594,19.6210163 Z"/>
    <path fill="#FFF" stroke="#28A6E0" stroke-width=".4" d="M19.6384341,23.6164183 C21.8520355,23.6164183 23.6531557,21.8239654 23.6531557,19.6210163 C23.6531557,18.283772 22.9891071,17.0990566 21.9728006,16.3736721 L20.1984462,15.6652529 C20.0155461,15.63925 19.828185,15.6256144 19.6384341,15.6256144 C17.4246733,15.6256144 15.6237124,17.4179087 15.6237124,19.6210163 C15.6237124,21.8239654 17.4246733,23.6164183 19.6384341,23.6164183 Z M19.6384341,17.5282622 C20.7978106,17.5282622 21.7413076,18.4670604 21.7413076,19.6210163 C21.7413076,20.7748137 20.7978106,21.7137704 19.6384341,21.7137704 C18.4788982,21.7137704 17.5355605,20.7748137 17.5355605,19.6210163 C17.5355605,18.4670604 18.4788982,17.5282622 19.6384341,17.5282622 Z"/>
    <path fill="#FFF" stroke="#28A6E0" stroke-width=".4" d="M11.1010765,12.4699144 C11.2878003,12.6557397 11.5323576,12.7486523 11.7769148,12.7486523 C12.021472,12.7486523 12.2660293,12.6557397 12.4527531,12.4699144 C12.8262008,12.0982638 12.8262008,11.4963929 12.4527531,11.1247423 L10.9205662,9.59992865 C13.159181,7.66874108 15.8950355,6.60405105 18.68251,6.40585857 L18.68251,8.45833994 C18.68251,8.98426352 19.1106047,9.40966387 19.6384341,9.40966387 C20.1661041,9.40966387 20.5943581,8.98426352 20.5943581,8.45833994 L20.5943581,6.40585857 C23.3818326,6.60341684 26.1176872,7.66874108 28.356302,9.59992865 L26.8239557,11.1247423 C26.4506674,11.4963929 26.4506674,12.0982638 26.8239557,12.4699144 C27.0106796,12.6557397 27.2552368,12.7486523 27.4999533,12.7486523 C27.7445106,12.7486523 27.9890678,12.6557397 28.1757916,12.4699144 L29.7079786,10.9451007 C31.6485043,13.1723085 32.7181833,15.8956318 32.9173342,18.6696924 L30.8542908,18.6696924 C30.3266207,18.6696924 29.8983668,19.095727 29.8983668,19.6210163 C29.8983668,20.1461471 30.3266207,20.5723403 30.8542908,20.5723403 L32.9168562,20.5723403 C32.7181833,23.3464008 31.6478671,26.0690899 29.7079786,28.296932 C29.7079786,28.296932 29.7079786,28.3801079 30.4086709,30.3387902 C36.3471896,24.4290075 36.3471896,14.8130252 30.4086709,8.90244966 C24.4696742,2.99266688 14.807194,2.99266688 8.86867524,8.90244966 C2.93031581,14.8130252 2.93031581,24.4290075 8.86867524,30.3387902 C9.5688896,28.296932 9.5688896,28.296932 9.5688896,28.296932 C7.62900109,26.0690899 6.55852549,23.3464008 6.36001193,20.5723403 L8.42178075,20.5723403 C8.95024743,20.5723403 9.37770479,20.1461471 9.37770479,19.6210163 C9.37770479,19.095727 8.95024743,18.6696924 8.42178075,18.6696924 L6.35937465,18.6696924 C6.55852549,15.8956318 7.6283638,13.1723085 9.5688896,10.9451007 L11.1010765,12.4699144 Z"/>
    <rect width="15.438" height="4.706" x="11.688" y="26.838" stroke="#FFF" stroke-width="1.544" rx="1.188"/>
    <use fill="#0086E3" xlink:href="#meter-a"/>
    <rect width="1" height="3.518" x="15.844" y="27.432" stroke="#FFF" stroke-width="1.188"/>
    <use fill="#0086E3" xlink:href="#meter-b"/>
    <rect width="1" height="3.518" x="19.406" y="27.432" stroke="#FFF" stroke-width="1.188"/>
    <g>
      <use fill="#0086E3" xlink:href="#meter-c"/>
      <rect width="1" height="3.518" x="22.969" y="27.432" stroke="#FFF" stroke-width="1.188"/>
    </g>
  </g>
</svg>
