<svg xmlns="http://www.w3.org/2000/svg" width="20" height="18" viewBox="0 0 20 18">
  <g fill="#FFF" fill-rule="evenodd">
    <path d="M11.4285714 16.1340613C11.4285714 16.760247 10.9149262 17.2708784 10.2840209 17.2708784 10.0830692 17.2708784 9.88349714 17.2151565 9.70783691 17.1119341 9.68438489 17.0996022 9.66277224 17.0831597 9.64299897 17.06352L4.77141654 12.560555C4.71577547 12.5336075 4.65645565 12.5194487 4.59529646 12.5194487L1.5327385 12.5194487C.904132388 12.5194487.392326531 12.011101.392326531 11.3867422L.392326531 6.71204428C.392326531 6.08585856.904132388 5.57751085 1.5327385 5.57751085L4.59529646 5.57751085C4.65645565 5.57751085 4.71761484 5.56335202 4.77141654 5.53823151L9.64299897 1.03343955C9.66277224 1.01562682 9.68438489.999641047 9.70783691.98502548 9.88349714.881803034 10.0830692.828364865 10.2840209.828364865 10.9149262.828364865 11.4285714 1.33671257 11.4285714 1.9628983L11.4285714 16.1340613zM14.4265383 14.1011969C14.2885256 14.1011969 14.1477935 14.0485257 14.0417345 13.9431833 13.8289366 13.7318233 13.8289366 13.3914863 14.0417345 13.1808016 16.3784318 10.8592174 16.3784318 7.08242282 14.0417345 4.76083871 13.8289366 4.55015394 13.8289366 4.20711592 14.0417345 3.99575587 14.2538525 3.7850711 14.5992241 3.7850711 14.8120219 3.99575587 17.5736351 6.73938479 17.5736351 11.1995544 14.8120219 13.9431833 14.7052831 14.0485257 14.5672704 14.1011969 14.4265383 14.1011969z"/>
    <path d="M16.7374007,16.127012 C16.6306618,16.2323544 16.4926492,16.2857008 16.351917,16.2857008 C16.2139044,16.2857008 16.0758917,16.2323544 15.9698327,16.127012 C15.7570348,15.9163272 15.7570348,15.5732892 15.9698327,15.3619291 C19.3610012,11.9936739 19.3610012,6.50979242 15.9698327,3.13883608 C15.7570348,2.92747604 15.7570348,2.58713911 15.9698327,2.37645433 C16.1819507,2.16509429 16.5246028,2.16509429 16.7374007,2.37645433 C20.5534851,6.16675439 20.5534851,12.3367119 16.7374007,16.127012 Z"/>
  </g>
</svg>
