<svg xmlns="http://www.w3.org/2000/svg" width="24" height="19" viewBox="0 0 24 19">
  <g fill="none" fill-rule="evenodd">
    <path fill="#000" d="M0,5.79881191 L0,16.1005643 C0,17.6729185 1.31271429,18.9499687 2.92897959,18.9499687 L21.0710204,18.9499687 C22.6872857,18.9499687 24,17.6729185 24,16.1005643 L24,5.79881191 C24,4.3025768 22.7511429,3.0876489 21.2130612,3.0876489 L17.3143469,3.0876489 L17.2212857,2.69210345 C16.8441429,1.10539498 15.4089796,0 13.7338776,0 L10.2613469,0 C8.59102041,0 7.15585714,1.10539498 6.77393878,2.69210345 L6.68087755,3.0876489 L2.78693878,3.0876489 C1.24885714,3.0876489 0,4.30746082 0,5.79881191 Z M7.16087755,4.25510658 C7.44,4.25510658 7.68006122,4.0692163 7.74367347,3.80238245 L7.94461224,2.9543511 C8.19930612,1.90131034 9.14944898,1.16751724 10.2613469,1.16751724 L13.7338776,1.16751724 C14.8457143,1.16751724 15.7959184,1.90131034 16.0506122,2.9543511 L16.2514898,3.80238245 C16.315102,4.06433229 16.5549796,4.25510658 16.8343469,4.25510658 L21.2080408,4.25510658 C22.0848367,4.25510658 22.795102,4.94589655 22.795102,5.79881191 L22.795102,16.1005643 C22.795102,17.029837 22.0212245,17.782511 21.066,17.782511 L2.92897959,17.782511 C1.9737551,17.782511 1.20012245,17.029837 1.20012245,16.1005643 L1.20012245,5.79881191 C1.20012245,4.94589655 1.91014286,4.25510658 2.78693878,4.25510658 L7.16087755,4.25510658 Z"/>
    <path fill="#000" d="M4.86373469 6.7471442C4.86373469 7.17872414 4.50404082 7.52840752 4.06040816 7.52840752 3.61677551 7.52840752 3.25708163 7.17872414 3.25708163 6.7471442 3.25708163 6.31556426 3.61677551 5.96564263 4.06040816 5.96564263 4.50404082 5.96564263 4.86373469 6.31556426 4.86373469 6.7471442zM12 15.9528527C14.7770816 15.9528527 17.04 13.7514138 17.04 11.0497806 17.04 8.34808777 14.7770816 6.1466489 12 6.1466489 9.22291837 6.1466489 6.96 8.34320376 6.96 11.0497806 6.96 13.7562978 9.22291837 15.9528527 12 15.9528527zM12 7.31416614C14.1158571 7.31416614 15.8399388 8.99140752 15.8399388 11.0497806 15.8399388 13.108094 14.1158571 14.7853354 12 14.7853354 9.88414286 14.7853354 8.16006122 13.108094 8.16006122 11.0497806 8.16006122 8.99140752 9.88414286 7.31416614 12 7.31416614z"/>
  </g>
</svg>
