<svg xmlns="http://www.w3.org/2000/svg" width="31" height="25" viewBox="0 0 31 25">
  <g fill-rule="evenodd">
    <path d="M0,7.69584639 L0,21.2507837 C0,23.3196708 1.69558929,25 3.78326531,25 L27.2167347,25 C29.3044107,25 31,23.3196708 31,21.2507837 L31,7.69584639 C31,5.72711599 29.3868929,4.12852665 27.4002041,4.12852665 L22.3643648,4.12852665 L22.2441607,3.6080721 C21.7570179,1.52029781 19.9032653,0.065830721 17.7395918,0.065830721 L13.2542398,0.065830721 C11.0967347,0.065830721 9.24298214,1.52029781 8.74967092,3.6080721 L8.62946684,4.12852665 L3.59979592,4.12852665 C1.61310714,4.12852665 0,5.73354232 0,7.69584639 Z M9.24946684,5.66465517 C9.61,5.66465517 9.92007908,5.4200627 10.0022449,5.06896552 L10.2617908,3.9531348 C10.5907704,2.56755486 11.8180383,1.60203762 13.2542398,1.60203762 L17.7395918,1.60203762 C19.1757143,1.60203762 20.4030612,2.56755486 20.7320408,3.9531348 L20.9915077,5.06896552 C21.0736735,5.41363636 21.3835153,5.66465517 21.7443648,5.66465517 L27.3937194,5.66465517 C28.5262474,5.66465517 29.4436735,6.57358934 29.4436735,7.69584639 L29.4436735,21.2507837 C29.4436735,22.473511 28.4440816,23.4638715 27.21025,23.4638715 L3.78326531,23.4638715 C2.54943367,23.4638715 1.55015816,22.473511 1.55015816,21.2507837 L1.55015816,7.69584639 C1.55015816,6.57358934 2.46726786,5.66465517 3.59979592,5.66465517 L9.24946684,5.66465517 Z"/>
    <path d="M6.28232398 8.94365204C6.28232398 9.51152038 5.81771939 9.97163009 5.24469388 9.97163009 4.67166837 9.97163009 4.20706378 9.51152038 4.20706378 8.94365204 4.20706378 8.3757837 4.67166837 7.9153605 5.24469388 7.9153605 5.81771939 7.9153605 6.28232398 8.3757837 6.28232398 8.94365204zM15.5 21.0564263C19.0870638 21.0564263 22.01 18.1597962 22.01 14.6050157 22.01 11.0501567 19.0870638 8.15352665 15.5 8.15352665 11.9129362 8.15352665 8.99 11.0437304 8.99 14.6050157 8.99 18.1662226 11.9129362 21.0564263 15.5 21.0564263zM15.5 9.68973354C18.2329821 9.68973354 20.4599209 11.8966301 20.4599209 14.6050157 20.4599209 17.3133229 18.2329821 19.5202194 15.5 19.5202194 12.7670179 19.5202194 10.5400791 17.3133229 10.5400791 14.6050157 10.5400791 11.8966301 12.7670179 9.68973354 15.5 9.68973354z"/>
  </g>
</svg>
