<svg xmlns="http://www.w3.org/2000/svg" xmlns:xlink="http://www.w3.org/1999/xlink" width="21" height="21" viewBox="0 0 21 21">
  <defs>
    <polygon id="pin-a" points="0 20.974 21 20.974 21 0 0 0"/>
  </defs>
  <g fill="none" fill-rule="evenodd">
    <path fill="#000" d="M10.5,9.1004375 C11.851875,9.1004375 12.950875,8.0014375 12.950875,6.6495625 C12.950875,5.2994375 11.851875,4.200875 10.5,4.200875 C9.148125,4.200875 8.049125,5.2994375 8.049125,6.6495625 C8.049125,8.0014375 9.148125,9.1004375 10.5,9.1004375 Z M10.5,4.8995625 C11.4655625,4.8995625 12.25,5.68575 12.25,6.6495625 C12.25,7.615125 11.4655625,8.3995625 10.5,8.3995625 C9.5344375,8.3995625 8.75,7.615125 8.75,6.6495625 C8.75,5.68575 9.5344375,4.8995625 10.5,4.8995625 Z"/>
    <mask id="pin-b" fill="#fff">
      <use xlink:href="#pin-a"/>
    </mask>
    <path fill="#000" d="M10.4383125,19.1646875 L15.8081875,11.409125 C17.821125,8.7241875 17.530625,4.3115625 15.1843125,1.967 C13.9164375,0.699125 12.2311875,0 10.4383125,0 C8.645875,0 6.958875,0.699125 5.69275,1.96525 C3.346,4.3115625 3.05375,8.7241875 5.060125,11.3990625 L10.4383125,19.1646875 Z M6.1866875,2.4609375 C7.322875,1.3260625 8.83225,0.700875 10.4383125,0.700875 C12.0430625,0.700875 13.55375,1.3260625 14.688625,2.4609375 C16.806125,4.5784375 17.06775,8.563625 15.239,11.0009375 L10.4383125,17.93575 L5.6293125,10.9904375 C3.8093125,8.563625 4.0691875,4.5784375 6.1866875,2.4609375 Z" mask="url(#pin-b)"/>
    <path fill="#000" d="M14.7415625,15.052625 C14.548625,15.029 14.3740625,15.16725 14.3521875,15.3584375 C14.329875,15.5518125 14.466375,15.7241875 14.65975,15.74825 C18.339125,16.1805 20.299125,17.34775 20.299125,18.0245625 C20.299125,18.9748125 16.5720625,20.299125 10.5,20.299125 C4.4279375,20.299125 0.700875,18.9748125 0.700875,18.0245625 C0.700875,17.34775 2.660875,16.1805 6.34025,15.74825 C6.533625,15.7241875 6.670125,15.5500625 6.6478125,15.3584375 C6.6241875,15.16725 6.451375,15.029 6.2584375,15.052625 C2.5738125,15.486625 0,16.7085625 0,18.0245625 C0,19.502875 3.605875,21 10.5,21 C17.394125,21 21,19.502875 21,18.0245625 C21,16.7085625 18.4261875,15.486625 14.7415625,15.052625 Z" mask="url(#pin-b)"/>
  </g>
</svg>
