<svg xmlns="http://www.w3.org/2000/svg" width="31" height="31" viewBox="0 0 31 31">
  <path fill="#FFF" fill-rule="evenodd" d="M0.66559706,2.46636693 C-2.90540294,9.00236693 9.05609706,21.1298669 9.05609706,21.1298669 C9.05609706,21.1298669 21.4825971,33.6888669 28.1180971,29.9188669 C28.1180971,29.9188669 30.1620971,28.1358669 30.5865971,25.4158669 C30.6285971,25.1458669 30.0915971,24.8028669 29.9240971,24.6713669 C29.3755971,24.2388669 28.7840971,23.8588669 28.1960971,23.4838669 C26.7850971,22.5838669 25.3360971,21.7443669 23.8970971,20.8898669 C23.4430971,20.6203669 22.9500971,20.3138669 22.4125971,20.4648669 C22.1020971,20.5523669 21.7825971,20.6478669 21.4970971,20.7978669 C20.4860971,21.3288669 19.6545971,21.8273669 18.5585971,22.3258669 C18.5585971,22.3258669 16.8070971,22.1873669 12.6310971,17.9538669 C8.19209706,13.4543669 8.06359706,11.9773669 8.06359706,11.9773669 C8.64109706,11.1583669 9.16759706,10.2998669 9.60359706,9.39636693 C9.79259706,9.00536693 10.0505971,8.63036693 10.1605971,8.20586693 C10.2725971,7.77836693 10.0435971,7.47286693 9.85259706,7.09836693 C9.42559706,6.26186693 8.97009706,5.44036693 8.49959706,4.62786693 C7.68609706,3.22386693 6.85659706,1.76236693 5.81809706,0.508366926 C5.70909706,0.376866926 5.45359706,-0.0136330744 5.24509706,0.000366925557 C2.93859706,0.155866926 0.66559706,2.46636693 0.66559706,2.46636693 L0.66559706,2.46636693 Z"/>
</svg>
