<svg xmlns="http://www.w3.org/2000/svg" width="26" height="16" viewBox="0 0 26 16">
  <defs>
    <linearGradient id="td-back-b" x1="100%" x2="0%" y1="0%" y2="100%">
      <stop offset="0%" stop-color="#00BCF4"/>
      <stop offset="100%" stop-color="#0151D2"/>
    </linearGradient>
    <linearGradient id="td-back-a" x1="100%" x2="0%" y1="0%" y2="100%">
      <stop offset="0%" stop-color="#00BCF4"/>
      <stop offset="92.549%" stop-color="#0059D5"/>
      <stop offset="92.549%" stop-color="#0059D5"/>
      <stop offset="100%" stop-color="#0151D2"/>
    </linearGradient>
  </defs>
  <path fill="url(#td-back-b)" fill-rule="evenodd" stroke="url(#td-back-a)" stroke-width="1.5" d="M6.61769299,15 L5.37636406,15 L5.37636406,2.2030492 L1,2.2030492 L1,1 L10.994057,1 L10.994057,2.2030492 L6.61769299,2.2030492 L6.61769299,15 Z M14.4985384,1 L18.8024161,1 C20.7595577,1 22.281756,1.61283748 23.3690569,2.83853084 C24.4563577,4.06422419 25,5.78307972 25,7.995149 C25,10.2136863 24.4578678,11.9357758 23.3735873,13.1614692 C22.2893067,14.3871625 20.7655982,15 18.8024161,15 L14.4985384,15 L14.4985384,1 Z M15.7398674,2.2030492 L15.7398674,13.7969508 L18.7299298,13.7969508 C20.3367188,13.7969508 21.573505,13.2956853 22.4403254,12.2931393 C23.3071458,11.2905933 23.7405495,9.86117814 23.7405495,8.004851 C23.7405495,6.14205583 23.3071458,4.70940672 22.4403254,3.70686071 C21.573505,2.70431469 20.3367188,2.2030492 18.7299298,2.2030492 L15.7398674,2.2030492 Z"/>
</svg>
