<svg xmlns="http://www.w3.org/2000/svg" width="36" height="36" viewBox="0 0 36 36">
  <g fill="#FFF" fill-rule="evenodd">
    <path d="M18.8993898 11.2073846C18.582 11.5278974 18.582 12.0470769 18.8997966 12.3675897 19.2175932 12.6881026 19.7327797 12.6881026 20.0501695 12.3675897L20.7219661 11.6897436C20.9634915 11.4461538 21.0285763 11.0758974 20.8843729 10.7633846 20.4358983 9.79189744 20.2087119 8.78707692 20.2087119 7.77620513 20.2087119 5.71815385 21.0969153 3.78020513 22.5949831 2.44092308L22.597322 7.81230769C22.5977288 8.08112821 22.7284068 8.33312821 22.9480678 8.4865641L26.8076949 11.1820513C27.0866441 11.3768205 27.4552881 11.3768205 27.7341356 11.1824615L31.5953898 8.48820513C31.8150508 8.33476923 31.9461356 8.08276923 31.9461356 7.81312821L31.945322 2.44246154C33.4432881 3.78020513 34.3315932 5.71692308 34.332 7.77261538 34.332 9.67569231 33.5974576 11.4645128 32.2635254 12.8099487 30.9307119 14.1548718 29.1589831 14.8948718 27.2744746 14.8948718L27.2689831 14.8948718C26.620678 14.8944615 25.3474576 14.5775385 24.9116949 14.4556923 24.6292881 14.3764103 24.3261356 14.4569231 24.1187797 14.6660513L21.6451525 17.1604103C21.3277627 17.4809231 21.3277627 18.0006154 21.6451525 18.3211282 21.804 18.4813333 22.0121695 18.5615385 22.220339 18.5615385 22.4285085 18.5615385 22.6370847 18.4813333 22.7959322 18.3211282L24.9398644 16.1588718C25.537322 16.3078974 26.5650508 16.5354872 27.2677627 16.5358974L27.2744746 16.5358974C29.5936271 16.5358974 31.7740678 15.6248205 33.4143051 13.9701538 35.0553559 12.3146667 35.9591186 10.1139487 35.9591186 7.77261538 35.9583051 4.61917949 34.2616271 1.69487179 31.5314237.140820513 31.2795254-.00256410256 30.9712881-.0002051282 30.7214237.146871795 30.4715593.293846154 30.3177966.563487179 30.3182034.855589744L30.3186102 7.38317949 27.2709153 9.50984615 24.2244407 7.38205128 24.2212881.853538462C24.2212881.561948718 24.0675254.292307692 23.817661.145230769 23.5682034-.00184615384 23.2595593-.00379487179 23.007661.139589744 20.2777627 1.69487179 18.5815932 4.62123077 18.5815932 7.77579487 18.5815932 8.84153846 18.7833559 9.89723077 19.1822034 10.9220513L18.8993898 11.2073846zM16.7454915 22.1027692L5.45938983 33.4853333C5.03552542 33.9132308 4.47142373 34.1492308 3.8719322 34.149641L3.87071186 34.149641C3.27132203 34.149641 2.70762712 33.913641 2.28335593 33.4861538 1.85949153 33.0582564 1.62630508 32.4886154 1.62711864 31.8827692 1.62752542 31.2786667 1.86111864 30.7116923 2.28579661 30.2846154L11.9932881 20.4937436C12.310678 20.1732308 12.310678 19.653641 11.9932881 19.3331282 11.6754915 19.0130256 11.1602034 19.0130256 10.8424068 19.3331282L1.13613559 29.1235897C.404745763 29.8587692.00122033899 30.8379487 2.95181232e-12 31.8808205-.00122033898 32.925641.400779661 33.9076923 1.13257627 34.6464615 1.86427119 35.3844103 2.83677966 35.7906667 3.87071186 35.7906667L3.87274576 35.7906667C4.90718644 35.7898462 5.87918644 35.3831795 6.61016949 34.645641L17.8959661 23.2629744C18.2137627 22.9424615 18.2137627 22.4232821 17.8959661 22.1027692 17.5781695 21.7822564 17.0628814 21.7822564 16.7454915 22.1027692z"/>
    <path d="M3.85922034 30.8864615C3.59105085 30.8868718 3.33966102 30.9922051 3.15376271 31.1809231 2.76244068 31.5727179 2.76050847 32.2133333 3.14938983 32.6084103 3.15020339 32.6091282 3.15132203 32.610359 3.15213559 32.6111795 3.34718644 32.8074872 3.60305085 32.9052308 3.85881356 32.9052308 4.11589831 32.9052308 4.37288136 32.8066667 4.56915254 32.6091282 4.95884746 32.2145641 4.95762712 31.574359 4.56833898 31.1828718 4.37918644 30.9917949 4.12779661 30.8864615 3.8600339 30.8864615L3.85922034 30.8864615zM30.4580339 26.7269744C30.3738305 26.6420513 30.2721356 26.5767179 30.1600678 26.5358974L27.8270847 25.6828718 19.3995254 17.1828718 20.7616271 15.8095385C21.0794237 15.4890256 21.0794237 14.9693333 20.7616271 14.6488205 20.5205085 14.405641 20.1657966 14.3471795 19.8698644 14.4729231L7.12301695 1.61835897C6.3519661.838358974 5.32505085.408102564 4.23183051.406871795L4.22705085.406871795C3.13383051.406871795 2.10620339.835589744 1.33271186 1.61476923.558508475 2.39558974.132711864 3.43333333.133118644 4.53661538.133830508 5.63958974.560135593 6.67651282 1.33352542 7.45610256L14.0807797 20.3114872C13.956 20.6099487 14.0140678 20.9677949 14.2551864 21.2109744 14.5729831 21.5314872 15.0881695 21.5314872 15.4055593 21.2109744L16.7673559 19.8375385 25.195322 28.3371282 26.0410169 30.6901538C26.0815932 30.8030769 26.1462712 30.905641 26.2305763 30.9905641L30.9593898 35.7597949C31.1182373 35.9196923 31.3264068 35.9997949 31.5345763 35.9997949 31.7427458 35.9997949 31.951322 35.9196923 32.1097627 35.7597949L35.1868475 32.6564103C35.3393898 32.5025641 35.4252203 32.2938462 35.4252203 32.0763077 35.4252203 31.8587692 35.3393898 31.6500513 35.1868475 31.4962051L30.4580339 26.7269744zM17.6738644 16.6027692C17.6718305 16.6044103 17.6703051 16.606359 17.6682712 16.608L15.1890508 19.1088205 2.484 6.29548718C2.01762712 5.82553846 1.76054237 5.20051282 1.76023729 4.53589744 1.75983051 3.87117949 2.01681356 3.24584615 2.48318644 2.77548718 2.94874576 2.30625641 3.5680678 2.04789744 4.22705085 2.04789744L4.22989831 2.04789744C4.88847458 2.04871795 5.50627119 2.30748718 5.97142373 2.77784615L18.6768814 15.5911795 17.6790508 16.5975385C17.6774237 16.5991795 17.6754915 16.6011282 17.6738644 16.6027692zM31.5345763 34.0190769L27.5092881 29.9593846 26.6631864 27.6059487C26.6226102 27.4934359 26.5578305 27.3904615 26.4736271 27.3055385L17.9181356 18.6773333 18.2490508 18.3435897 26.8045424 26.9722051C26.8887458 27.0571282 26.9904407 27.122359 27.1025085 27.1632821L29.4354915 28.0162051 33.4607797 32.0763077 31.5345763 34.0190769z"/>
  </g>
</svg>
