<svg xmlns="http://www.w3.org/2000/svg" xmlns:xlink="http://www.w3.org/1999/xlink" width="22" height="30" viewBox="0 0 22 30">
  <defs>
    <rect id="trash-a" width="1" height="14" x="5" y="10" rx=".5"/>
    <rect id="trash-b" width="1" height="14" x="10" y="10" rx=".5"/>
    <rect id="trash-c" width="1" height="14" x="15" y="10" rx=".5"/>
  </defs>
  <g fill="none" fill-rule="evenodd" transform="translate(1 1)">
    <g fill="#000" stroke="#000" stroke-width=".2">
      <path d="M19.1208461 8.4382151C19.1208461 8.19679634 19.3172285 8 19.5581395 8 19.8036176 8 20 8.19679634 20 8.4382151L20 25.291762C20 26.0377574 19.6917253 26.7128146 19.206478 27.2048055 18.7155219 27.6967963 18.0373175 28 17.2974581 28L3.70368367 28C2.96268253 28 2.2844781 27.6967963 1.79466378 27.2048055 1.30370771 26.7173913 1 26.0377574 1 25.291762L1 8.4382151C1 8.19679634 1.19638243 8 1.43729343 8 1.67820443 8 1.8791539 8.19679634 1.8791539 8.4382151L1.8791539 25.291762C1.8791539 25.7929062 2.08467039 26.2528604 2.41463854 26.583524 2.74460669 26.9141876 3.20359353 27.124714 3.70368367 27.124714L17.2928911 27.124714C17.7964065 27.124714 18.251968 26.9141876 18.5819362 26.583524 18.9119043 26.2528604 19.1208461 25.7929062 19.1208461 25.291762L19.1208461 8.4382151zM7.73015295 2.64011538C7.73015295 2.87546154 7.56620216 3.07176923 7.36507648 3.07176923 7.16395079 3.07176923 7 2.87546154 7 2.64011538 7 1.91288462 7.25355181 1.25480769 7.66342879.775192308 8.06853977.296692308 8.63474193 0 9.25622982 0L12.093913 0C12.7115881 0 13.2777903.296692308 13.6876673.775192308 14.0975443 1.25480769 14.3501429 1.91734615 14.3501429 2.64011538 14.3501429 2.87546154 14.1861921 3.07176923 13.9850664 3.07176923 13.7801279 3.07176923 13.6171303 2.87546154 13.6171303 2.64011538 13.6171303 2.15269231 13.4455539 1.70319231 13.1700784 1.38084615 12.894603 1.0585 12.5104624.858846154 12.093913.858846154L9.25622982.858846154C8.83968042.858846154 8.4564931 1.0585 8.18101764 1.38084615 7.90458897 1.70319231 7.73015295 2.15269231 7.73015295 2.64011538zM1.38837863 4L19.4171063 4C19.7997939 4 20.147141 4.16953846 20.3995735 4.44838462L20.3995735 4.45284615C20.6520059 4.73169231 20.8095238 5.11538462 20.8095238 5.53365385L20.8095238 6.64011538C20.8095238 6.87546154 20.63686 7.06730769 20.4197681 7.06730769L.386726557 7.06730769C.173673545 7.06730769 0 6.87546154 0 6.64011538L0 5.53365385C0 5.11538462.157517867 4.73169231.405911426 4.45284615L.409950345 4.44838462C.662382824 4.16953846 1.00972991 4 1.38837863 4zM19.4171063 4.85326923L1.38837863 4.85326923C1.21874401 4.85326923 1.06526506 4.93246154.954194769 5.05403846.844134209 5.17561538.777492034 5.34626923.777492034 5.53365385L.777492034 6.21292308 20.0330415 6.21292308 20.0330415 5.53365385C20.0330415 5.34626923 19.9623604 5.17561538 19.8512901 5.05403846 19.7412296 4.93246154 19.5867409 4.85326923 19.4171063 4.85326923z"/>
    </g>
    <use fill="#D8D8D8" xlink:href="#trash-a"/>
    <rect width="1" height="13" x="5.5" y="10.5" stroke="#000" rx=".5"/>
    <use fill="#D8D8D8" xlink:href="#trash-b"/>
    <rect width="1" height="13" x="10.5" y="10.5" stroke="#000" rx=".5"/>
    <g>
      <use fill="#D8D8D8" xlink:href="#trash-c"/>
      <rect width="1" height="13" x="15.5" y="10.5" stroke="#000" rx=".5"/>
    </g>
  </g>
</svg>
