<svg xmlns="http://www.w3.org/2000/svg" width="31" height="19" viewBox="0 0 31 19">
  <path fill-rule="evenodd" d="M29.2420802,8.57295601 L26.3327626,12.7987499 C26.3246835,12.8104943 26.3096456,12.8153541 26.2959052,12.8104365 L23.3489635,11.7581246 C23.1035816,11.670591 22.8322521,11.7946307 22.7429687,12.0353624 C22.6536853,12.2760363 22.7801799,12.5421661 23.0255618,12.6298154 L24.4766824,13.1479585 L24.2934568,13.6418607 C24.2445101,13.7738263 24.1461451,13.879179 24.016407,13.9385375 C23.8866099,13.997896 23.7411264,14.0040865 23.6066705,13.9560674 L6.54770433,7.86476151 C6.4132485,7.81680029 6.30586075,7.72024146 6.24541459,7.59301985 C6.18496844,7.46574039 6.17859948,7.32301382 6.22754612,7.19104816 L7.10068344,4.83765087 L10.6650015,6.1103298 C11.0926064,6.26300731 11.4814669,6.49135824 11.8207909,6.78896076 L14.7111786,9.32442554 C15.1405527,9.7011149 15.6326728,9.99003928 16.1737986,10.1832727 L18.6063288,11.0517814 C18.8517107,11.1393728 19.1229812,11.0153332 19.2122646,10.7746015 C19.301607,10.5338697 19.1751123,10.2677399 18.9296715,10.1800907 L16.4971413,9.31158189 C16.0695364,9.15890438 15.6806759,8.93055345 15.3413519,8.63295093 L12.4510232,6.09748615 C12.0216491,5.72085464 11.5295289,5.43198812 10.9884032,5.23869689 L6.50601123,3.63821549 C6.489735,3.6323722 6.48118408,3.61455308 6.48719921,3.59852744 L7.34954468,1.27411515 C7.39849133,1.14220735 7.49685638,1.03685466 7.62659447,0.977554002 C7.75633256,0.918195488 7.90181613,0.911947224 8.03633094,0.960024149 L29.2269245,8.52655686 C29.2311704,8.52806108 29.2413136,8.53164804 29.2461493,8.54605376 C29.2506901,8.56045949 29.244675,8.56925334 29.2420802,8.57295601 Z M15.632378,12.9986944 L13.5522637,12.9986944 L13.5522637,11.3531445 L15.632378,12.095878 L15.632378,12.9986944 Z M16.0592163,13.9615057 L15.7608777,16.0103001 C15.7234305,16.267636 15.4953864,16.4616215 15.2304258,16.4616215 L13.9542158,16.4616215 C13.6893142,16.4616215 13.461329,16.267636 13.4238229,16.0103001 L13.1254843,13.9615057 C13.1248946,13.9576873 13.1234793,13.9475628 13.1328558,13.9369176 C13.1422323,13.9262724 13.1527293,13.9262724 13.1566215,13.9262724 L16.0279022,13.9262724 C16.0319123,13.9262724 16.0422914,13.9262724 16.0516679,13.9369176 C16.0611034,13.9475628 16.0596881,13.9576873 16.0592163,13.9615057 Z M2.96256922,14.4209845 L12.2372502,14.4209845 L12.3902822,15.4722551 L2.96256922,15.4722551 L2.96256922,14.4209845 Z M2.01707342,16.9254973 C2.01707342,17.2153473 1.7767631,17.4511036 1.48131409,17.4511036 L0.945495795,17.4511036 L0.945495795,12.442136 L1.48131409,12.442136 C1.7767631,12.442136 2.01707342,12.6779501 2.01707342,12.9677423 L2.01707342,16.9254973 Z M30.1452932,8.25973282 C30.0517638,7.97699885 29.8348653,7.75657396 29.5501492,7.65492395 L8.35955569,0.0883912377 C7.98773813,-0.0443265307 7.58543212,-0.027143803 7.22682425,0.136930997 C6.86821638,0.300947943 6.59623817,0.592244352 6.46089776,0.956957871 L5.59855228,3.28137015 C5.41438317,3.77799148 5.67627719,4.32911156 6.18255059,4.50990625 L6.21209549,4.52043574 L5.33895817,6.87389088 C5.20361775,7.23866225 5.22125034,7.63328644 5.38843556,7.9850406 C5.55567974,8.33685261 5.8524851,8.60367665 6.22436164,8.73645227 L12.6067679,11.0155068 L12.6067679,13.1664719 C12.5380656,13.212466 12.4741991,13.2662705 12.4185887,13.3291582 C12.3735342,13.3801857 12.3347307,13.4353208 12.3020013,13.4934065 L2.96256922,13.4934065 L2.96256922,12.9677423 C2.96256922,12.1664603 2.29807432,11.514558 1.48131409,11.514558 L0.472777383,11.514558 C0.211649997,11.514558 0,11.7221971 0,11.9783181 L0,17.9149215 C0,18.1710425 0.211649997,18.3786816 0.472777383,18.3786816 L1.48131409,18.3786816 C2.29807432,18.3786816 2.96256922,17.7267794 2.96256922,16.9254973 L2.96256922,16.3998331 L12.5507446,16.3998331 C12.750954,16.9787811 13.3135456,17.3892574 13.9542158,17.3892574 L15.2304258,17.3892574 C15.9628563,17.3892574 16.5932654,16.8528901 16.69682,16.1415715 L16.9951586,14.0927192 C17.0352595,13.8175063 16.9517554,13.5392271 16.766053,13.3291582 C16.7103835,13.2662127 16.646635,13.212466 16.5778738,13.1664719 L16.5778738,12.4335157 L23.2832689,14.827816 C23.448567,14.8868852 23.6199392,14.9162752 23.7907807,14.9162752 C24.0041998,14.9162752 24.2167934,14.8704546 24.4158824,14.7793341 C24.7744902,14.6152593 25.0465274,14.3240786 25.1818089,13.9593072 L25.3650934,13.465405 L25.9723856,13.682243 C26.0823091,13.721526 26.1954761,13.7403865 26.3072278,13.7403865 C26.6246143,13.7403865 26.9302655,13.588114 27.1162037,13.3180501 L30.0255214,9.09225623 C30.1951834,8.84585476 30.2387636,8.54240894 30.1452932,8.25973282 L30.1452932,8.25973282 Z"/>
</svg>
