<svg xmlns="http://www.w3.org/2000/svg" width="26" height="28" viewBox="0 0 26 28">
  <g fill-rule="evenodd">
    <path d="M12.9498644 8.24454968L2.8022028 8.24454968C2.57793948 8.24454968 2.39578896 8.4108271 2.39578896 8.61738581 2.39578896 8.8244129 2.57793948 8.99256387 2.8022028 8.99256387L12.9498644 8.99256387C13.1736203 8.99256387 13.3562782 8.8244129 13.3562782 8.61738581 13.3562782 8.4108271 13.1736203 8.24454968 12.9498644 8.24454968zM2.8022028 5.99582323L6.86126744 5.99582323C7.08502338 5.99582323 7.26768128 5.82720387 7.26768128 5.62064516 7.26768128 5.41408645 7.08502338 5.2454671 6.86126744 5.2454671L2.8022028 5.2454671C2.57793948 5.2454671 2.39578896 5.41408645 2.39578896 5.62064516 2.39578896 5.82720387 2.57793948 5.99582323 2.8022028 5.99582323zM12.9498644 11.2412903L2.8022028 11.2412903C2.57793948 11.2412903 2.39578896 11.4094413 2.39578896 11.6164684 2.39578896 11.8230271 2.57793948 11.9916465 2.8022028 11.9916465L12.9498644 11.9916465C13.1736203 11.9916465 13.3562782 11.8230271 13.3562782 11.6164684 13.3562782 11.4094413 13.1736203 11.2412903 12.9498644 11.2412903zM9.70109053 14.238031L2.8022028 14.238031C2.57793948 14.238031 2.39578896 14.4066503 2.39578896 14.613209 2.39578896 14.8202361 2.57793948 14.9883871 2.8022028 14.9883871L9.70109053 14.9883871C9.92535385 14.9883871 10.1075044 14.8202361 10.1075044 14.613209 10.1075044 14.4066503 9.92535385 14.238031 9.70109053 14.238031z"/>
    <path stroke="#000" stroke-width=".2" d="M23.6459163,25.3238688 C24.8293072,23.9744791 25.5483871,22.2009768 25.5483871,20.259871 C25.5483871,18.2403965 24.7694381,16.4023553 23.4998227,15.0351845 C23.4985212,15.0338674 23.4972197,15.0325503 23.4972197,15.0312331 C22.1739174,13.6100605 20.3222052,12.6992719 18.2619273,12.6274888 L18.1145322,12.6235375 C18.0764633,12.6222203 18.0380689,12.6209032 18,12.6209032 C17.9619311,12.6209032 17.9238621,12.6222203 17.8857932,12.6235375 L17.7393742,12.6274888 C15.6790963,12.6992719 13.8260826,13.6100605 12.5044072,15.0312331 C12.5031057,15.0325503 12.5018042,15.0338674 12.5018042,15.0351845 C12.5018042,15.0351845 12.5018042,15.0351845 12.5005027,15.0351845 C11.2318634,16.4023553 10.4516129,18.2403965 10.4516129,20.259871 C10.4516129,22.2009768 11.1723197,23.9744791 12.354409,25.3238688 C12.3566867,25.326503 12.3566867,25.3291372 12.3579882,25.3317715 C12.3631942,25.3380278 12.3697017,25.340662 12.3745823,25.3469184 C13.7040668,26.8507403 15.6104421,27.8191529 17.7393742,27.8925824 L17.8857932,27.8978509 C17.9238621,27.8978509 17.9619311,27.8988387 18,27.8988387 C18.0380689,27.8988387 18.0764633,27.8978509 18.1145322,27.8965337 L18.2606258,27.8925824 L18.2619273,27.8925824 C20.392161,27.8191529 22.3011392,26.8481061 23.6306237,25.3419792 C23.6332267,25.3367107 23.6394088,25.3353936 23.6420118,25.3304544 C23.6446148,25.3291372 23.6446148,25.326503 23.6459163,25.3238688 Z M10.9790466,20.5236243 L14.1033026,20.5236243 C14.132261,21.6402129 14.3486357,22.7255199 14.7322535,23.7416782 C13.9913734,24.0133342 13.2833562,24.3758715 12.6199155,24.8299487 C11.6450904,23.6557361 11.0376142,22.1598168 10.9790466,20.5236243 Z M12.76243,15.5251532 C13.410578,15.9509123 14.0993981,16.2917172 14.8188034,16.547897 C14.3788956,17.629582 14.134864,18.7962212 14.1033026,19.9961177 L10.9790466,19.9961177 C11.0411934,18.2828736 11.703658,16.7214276 12.76243,15.5251532 Z M25.0222549,19.9961177 L21.8970228,19.9961177 C21.865136,18.7962212 21.6224059,17.629582 21.181522,16.547897 C21.9009273,16.2917172 22.5910488,15.9509123 23.2378954,15.5251532 C24.2966674,16.7214276 24.9601081,18.2828736 25.0222549,19.9961177 Z M17.7393742,16.5620561 C16.987106,16.5413114 16.2485035,16.4270513 15.5356057,16.2248733 C16.0630394,15.1290293 16.807824,14.1398721 17.7393742,13.316672 L17.7393742,16.5620561 Z M17.7393742,17.0892334 L17.7393742,19.9961177 L14.6242288,19.9961177 C14.6561156,18.8515402 14.8936397,17.7402201 15.3182548,16.7112199 C16.0998069,16.9400696 16.9119442,17.0675009 17.7393742,17.0892334 Z M18.2606258,17.0892334 C19.0880558,17.0675009 19.9001931,16.9400696 20.6830467,16.7112199 C21.1076618,17.7402201 21.3451859,18.8515402 21.3770727,19.9961177 L18.2606258,19.9961177 L18.2606258,17.0892334 Z M18.2606258,16.5620561 L18.2606258,13.316672 C19.1934775,14.1398721 19.9382621,15.1290293 20.4656958,16.2248733 C19.7514965,16.4270513 19.012894,16.5413114 18.2606258,16.5620561 Z M20.9703533,16.0641846 C20.4696003,15.0042322 19.7755743,14.0384538 18.9165829,13.2099852 C20.441618,13.4118339 21.8130759,14.109249 22.8692449,15.1382492 C22.2692524,15.522519 21.6324925,15.8327008 20.9703533,16.0641846 Z M15.0309482,16.0641846 C14.3675075,15.8327008 13.7307476,15.522519 13.1320566,15.1382492 C14.1882256,14.109249 15.5596835,13.4118339 17.0837425,13.2099852 C16.2244257,14.0384538 15.5303997,15.0042322 15.0309482,16.0641846 Z M14.6242288,20.5236243 L17.7393742,20.5236243 L17.7393742,23.1680723 C16.8790813,23.1914512 16.0363586,23.326456 15.2255228,23.5734161 C14.8594753,22.6112598 14.6535126,21.5822596 14.6242288,20.5236243 Z M17.7393742,23.6942618 L17.7393742,27.20307 C16.7417728,26.3219166 15.9602208,25.2517564 15.427581,24.0633848 C16.1736671,23.8407914 16.949037,23.7173114 17.7393742,23.6942618 Z M18.2606258,27.20307 L18.2606258,23.6942618 C19.0512884,23.7173114 19.8263329,23.8407914 20.572419,24.0633848 C20.0414061,25.2517564 19.2582272,26.3219166 18.2606258,27.20307 Z M18.2606258,23.1680723 L18.2606258,20.5236243 L21.3770727,20.5236243 C21.3477889,21.5822596 21.1418262,22.6112598 20.7748026,23.5747332 C19.9649429,23.326456 19.1212441,23.1914512 18.2606258,23.1680723 Z M21.8970228,20.5236243 L25.0222549,20.5236243 C24.9627111,22.1598168 24.3562111,23.6557361 23.3800845,24.8299487 C22.7166438,24.3758715 22.008952,24.0133342 21.269048,23.7416782 C21.6529912,22.7255199 21.867739,21.6402129 21.8970228,20.5236243 Z M12.9745748,25.2247555 C13.58986,24.8108505 14.2454917,24.4776191 14.9307326,24.2293419 C15.4376676,25.3765536 16.1635805,26.4236641 17.0837425,27.3097567 C15.4822441,27.0977004 14.049941,26.340027 12.9745748,25.2247555 Z M18.9165829,27.3097567 C19.8367449,26.4236641 20.5636339,25.3778707 21.0695928,24.2293419 C21.7545083,24.4776191 22.4104654,24.8108505 23.0267267,25.2247555 C21.9503844,26.340027 20.5180813,27.0977004 18.9165829,27.3097567 Z"/>
    <path d="M8.48438591,17.9851277 C8.70814185,17.9851277 8.89079976,17.8188503 8.89079976,17.6122916 C8.89079976,17.4052645 8.70814185,17.2371135 8.48438591,17.2371135 L2.8022028,17.2371135 C2.57793948,17.2371135 2.39578896,17.4052645 2.39578896,17.6122916 C2.39578896,17.8188503 2.57793948,17.9851277 2.8022028,17.9851277 L8.48438591,17.9851277 Z"/>
    <path d="M0.722814598,0.750356129 L11.1900904,0.750356129 L11.1900904,5.99582323 L16.2430247,5.99582323 L16.2430247,10.41708 L16.9658393,10.41708 L16.9658393,5.46514065 L11.6994897,0 L0,0 L0,22.4825806 L8.14469517,22.4825806 L8.14469517,21.7322245 L0.722814598,21.7322245 L0.722814598,0.750356129 Z M11.910649,1.27869677 L15.7318206,5.2454671 L11.910649,5.2454671 L11.910649,1.27869677 Z"/>
  </g>
</svg>
