<svg xmlns="http://www.w3.org/2000/svg" width="36" height="26" viewBox="0 0 36 26">
  <g fill="#0A0A08" fill-rule="evenodd">
    <path d="M2.6614425,1.30002666 C1.92959064,1.30002666 1.33076023,1.88502723 1.33076023,2.59997715 L1.33076023,23.4000229 C1.33076023,24.1150489 1.92959064,24.7000495 2.6614425,24.7000495 L33.2683821,24.7000495 C34.0002339,24.7000495 34.5990643,24.1150489 34.5990643,23.4000229 L34.5990643,2.59997715 C34.5990643,1.88502723 34.0002339,1.30002666 33.2683821,1.30002666 L2.6614425,1.30002666 Z M33.2683821,26 L2.6614425,26 C1.19766082,26 0,24.8299989 0,23.4000229 L0,2.59997715 C0,1.17000114 1.19766082,0 2.6614425,0 L33.2683821,0 C34.7321637,0 35.9298246,1.17000114 35.9298246,2.59997715 L35.9298246,23.4000229 C35.9298246,24.8299989 34.7321637,26 33.2683821,26 L33.2683821,26 Z"/>
    <path d="M1.33076023 8.73307641L34.5990643 8.73307641 34.5990643 4.73367111 1.33076023 4.73367111 1.33076023 8.73307641zM35.2644834 10.0662375L.665341131 10.0662375C.266120858 10.0662375 0 9.79963657 0 9.39969604L0 4.0671296C0 3.66718907.266120858 3.40058809.665341131 3.40058809L35.2644834 3.40058809C35.6637037 3.40058809 35.9298246 3.66718907 35.9298246 4.0671296L35.9298246 9.39969604C35.9298246 9.79963657 35.6637037 10.0662375 35.2644834 10.0662375L35.2644834 10.0662375zM21.957115 21.3979119L31.2722807 21.3979119 31.2722807 16.731887 21.957115 16.731887 21.957115 21.3979119zM31.9376218 22.730995L21.2917739 22.730995C20.8925536 22.730995 20.6263548 22.464394 20.6263548 22.0644534L20.6263548 16.0653455C20.6263548 15.665405 20.8925536 15.398804 21.2917739 15.398804L31.9376218 15.398804C32.3368421 15.398804 32.602963 15.665405 32.602963 16.0653455L32.602963 22.0644534C32.602963 22.464394 32.3368421 22.730995 31.9376218 22.730995L31.9376218 22.730995zM8.64974659 14.0656428L3.3268616 14.0656428C2.92764133 14.0656428 2.6614425 13.7990419 2.6614425 13.3991013 2.6614425 12.9991608 2.92764133 12.7324817 3.3268616 12.7324817L8.64974659 12.7324817C9.04896686 12.7324817 9.31516569 12.9991608 9.31516569 13.3991013 9.31516569 13.7990419 9.04896686 14.0656428 8.64974659 14.0656428M16.634152 14.0656428L11.3112671 14.0656428C10.9120468 14.0656428 10.645848 13.7990419 10.645848 13.3991013 10.645848 12.9991608 10.9120468 12.7324817 11.3112671 12.7324817L16.634152 12.7324817C17.0333723 12.7324817 17.2995712 12.9991608 17.2995712 13.3991013 17.2995712 13.7990419 17.0333723 14.0656428 16.634152 14.0656428M11.9766082 16.731887L3.3268616 16.731887C2.92764133 16.731887 2.6614425 16.465286 2.6614425 16.0653455 2.6614425 15.665405 2.92764133 15.398804 3.3268616 15.398804L11.9766082 15.398804C12.3758285 15.398804 12.6419493 15.665405 12.6419493 16.0653455 12.6419493 16.465286 12.3758285 16.731887 11.9766082 16.731887M16.634152 16.731887L14.6380507 16.731887C14.2388304 16.731887 13.9727096 16.465286 13.9727096 16.0653455 13.9727096 15.665405 14.2388304 15.398804 14.6380507 15.398804L16.634152 15.398804C17.0333723 15.398804 17.2995712 15.665405 17.2995712 16.0653455 17.2995712 16.465286 17.0333723 16.731887 16.634152 16.731887"/>
  </g>
</svg>
