<svg xmlns="http://www.w3.org/2000/svg" width="43" height="38" viewBox="0 0 43 38">
  <path fill="#D8D8D8" fill-rule="evenodd" d="M21.5418242,32.4314931 C20.3195154,32.4314931 19.4026578,31.3951585 19.4026578,30.2147919 C19.4026578,29.0057059 20.3194314,27.9981778 21.5418242,27.9981778 C22.6808205,27.9981778 23.6531918,29.0057059 23.6531918,30.2147919 C23.6531918,31.3951585 22.6808205,32.4314931 21.5418242,32.4314931 Z M21.5140254,11.2147448 C22.597508,11.2147448 23.5143656,11.8481377 23.5143656,12.9707174 C23.5143656,16.3965046 23.1253499,21.3192678 23.1253499,24.744968 C23.1253499,25.6374445 22.1807775,26.0116668 21.5140254,26.0116668 C20.6251346,26.0116668 19.874986,25.6374445 19.874986,24.744968 C19.874986,21.3192678 19.4861383,16.3965046 19.4861383,12.9707174 C19.4861383,11.8481377 20.3750291,11.2147448 21.5140254,11.2147448 Z M42.6215705,33.7410099 L23.7561567,1.32039536 C23.2793773,0.50102268 22.4233244,0 21.499916,0 C20.5765916,0 19.7205387,0.500935651 19.2437593,1.32039536 L0.378429489,33.7410099 C-0.112207325,34.5842284 -0.126736625,35.635967 0.340552528,36.493284 C0.807841682,37.3507752 1.68447076,37.8809524 2.63458618,37.8809524 L40.3653298,37.8809524 C41.3155292,37.8809524 42.1921583,37.3506881 42.6594475,36.493284 C43.1267366,35.6358799 43.1122073,34.5842284 42.6215705,33.7410099 L42.6215705,33.7410099 Z"/>
</svg>
