<svg width="24" height="24" viewBox="0 0 24 24" version="1.1" xmlns="http://www.w3.org/2000/svg" xmlns:xlink="http://www.w3.org/1999/xlink">
<g id="Canvas" fill="none">
<g id="calendar 1">
<path id="Vector" d="M 22.0005 2.25L 18.75 2.25L 18.75 0.75C 18.75 0.33525 18.4147 0 18 0C 17.5853 0 17.25 0.33525 17.25 0.75L 17.25 2.25L 12.75 2.25L 12.75 0.75C 12.75 0.33525 12.414 0 12 0C 11.586 0 11.25 0.33525 11.25 0.75L 11.25 2.25L 6.75 2.25L 6.75 0.75C 6.75 0.33525 6.414 0 6 0C 5.586 0 5.25 0.33525 5.25 0.75L 5.25 2.25L 2.00025 2.25C 0.8955 2.25 0 3.14475 0 4.2495L 0 21.9998C 0 23.1045 0.8955 24 2.00025 24L 22.0005 24C 23.1052 24 24 23.1045 24 21.9998L 24 4.2495C 24 3.14475 23.1052 2.25 22.0005 2.25ZM 22.5 21.9998C 22.5 22.2757 22.2757 22.5 22.0005 22.5L 2.00025 22.5C 1.72425 22.5 1.5 22.2757 1.5 21.9998L 1.5 4.2495C 1.5 3.97425 1.72425 3.75 2.00025 3.75L 5.25 3.75L 5.25 5.25C 5.25 5.66475 5.586 6 6 6C 6.414 6 6.75 5.66475 6.75 5.25L 6.75 3.75L 11.25 3.75L 11.25 5.25C 11.25 5.66475 11.586 6 12 6C 12.414 6 12.75 5.66475 12.75 5.25L 12.75 3.75L 17.25 3.75L 17.25 5.25C 17.25 5.66475 17.5853 6 18 6C 18.4147 6 18.75 5.66475 18.75 5.25L 18.75 3.75L 22.0005 3.75C 22.2757 3.75 22.5 3.97425 22.5 4.2495L 22.5 21.9998Z" fill="#757575"/>
<path id="Vector_2" d="M 3 0L 0 0L 0 2.25L 3 2.25L 3 0Z" transform="translate(5.25 9)" fill="#757575"/>
<path id="Vector_3" d="M 3 0L 0 0L 0 2.25L 3 2.25L 3 0Z" transform="translate(5.25 12.75)" fill="#757575"/>
<path id="Vector_4" d="M 3 0L 0 0L 0 2.25L 3 2.25L 3 0Z" transform="translate(5.25 16.5)" fill="#757575"/>
<path id="Vector_5" d="M 3 0L 0 0L 0 2.25L 3 2.25L 3 0Z" transform="translate(10.5 16.5)" fill="#757575"/>
<path id="Vector_6" d="M 3 0L 0 0L 0 2.25L 3 2.25L 3 0Z" transform="translate(10.5 12.75)" fill="#757575"/>
<path id="Vector_7" d="M 3 0L 0 0L 0 2.25L 3 2.25L 3 0Z" transform="translate(10.5 9)" fill="#757575"/>
<path id="Vector_8" d="M 3 0L 0 0L 0 2.25L 3 2.25L 3 0Z" transform="translate(15.75 16.5)" fill="#757575"/>
<path id="Vector_9" d="M 3 0L 0 0L 0 2.25L 3 2.25L 3 0Z" transform="translate(15.75 12.75)" fill="#757575"/>
<path id="Vector_10" d="M 3 0L 0 0L 0 2.25L 3 2.25L 3 0Z" transform="translate(15.75 9)" fill="#757575"/>
</g>
</g>
</svg>
