<svg width="12" height="14" viewBox="0 0 12 14" version="1.1" xmlns="http://www.w3.org/2000/svg" xmlns:xlink="http://www.w3.org/1999/xlink">
<g id="Canvas" fill="none">
<path id="Vector" d="M 11.069 10.0877C 10.704 9.54421 10.2045 8.80002 10.2045 6.68182L 10.2045 5.72728C 10.2045 3.71342 8.85718 2.00962 7.01557 1.46037L 7.01557 1.27274C 7.01557 0.570789 6.44321 0 5.74003 0C 5.03685 0 4.46446 0.570789 4.46446 1.27274L 4.46446 1.46037C 2.62291 2.00962 1.27557 3.71342 1.27557 5.72728L 1.27557 6.68182C 1.27557 8.80002 0.776066 9.54421 0.411068 10.0877C 0.199913 10.4024 1.09482e-08 10.6998 1.09482e-08 11.1364C 1.09482e-08 12.1737 2.1673 12.5377 3.92446 12.6631C 4.17083 13.4501 4.89404 14 5.74 14C 6.58596 14 7.30917 13.4501 7.55554 12.6631C 9.3127 12.5377 11.48 12.1737 11.48 11.1364C 11.48 10.6998 11.2801 10.4024 11.069 10.0877Z" fill="#3B8FC6"/>
</g>
</svg>
