<svg xmlns="http://www.w3.org/2000/svg" width="23" height="23" viewBox="0 0 23 23">
  <g fill="none" fill-rule="evenodd" transform="translate(1 1)">
    <path stroke="#000" stroke-width=".7" d="M14.7249072,14.4964482 C14.3430205,14.0981453 13.8825621,13.8851386 13.3946012,13.8851386 C12.9104778,13.8851386 12.4459851,14.0941021 12.0485513,14.4926022 L10.8046888,15.7350921 C10.7022554,15.6798188 10.6000188,15.6285887 10.5016197,15.5773586 C10.3599743,15.5063071 10.2260532,15.4392494 10.1118611,15.3681979 C8.94686542,14.6266682 7.88809156,13.6601503 6.87261329,12.4097713 C6.38061801,11.7864801 6.05004638,11.2618032 5.81000188,10.7294836 C6.13265238,10.433641 6.43188392,10.1258167 6.72304673,9.82997401 C6.83340127,9.7196247 6.94350981,9.60523221 7.05381516,9.49468567 C7.88021964,8.66647415 7.88021964,7.59345283 7.05381516,6.76504409 L5.97910066,5.68817681 C5.85728262,5.56589518 5.73118423,5.43971829 5.61320376,5.3135907 C5.37699683,5.06897813 5.1290804,4.81647643 4.87329205,4.57975299 C4.49140531,4.20107439 4.03478449,4 3.55469549,4 C3.07440969,4 2.61011374,4.20107439 2.21651751,4.57975299 L2.20864559,4.58764213 L0.870270814,5.94072783 C0.366516842,6.44553402 0.079191595,7.06088674 0.0161669989,7.77490299 C-0.0781976968,8.92666777 0.26024586,9.99968908 0.52006857,10.7017237 C1.15754686,12.4255496 2.11024653,14.0230013 3.53107972,15.7350921 C5.25498199,17.7981015 7.32923412,19.4271591 9.69868341,20.5750779 C10.6038563,21.0049866 11.8123444,21.513836 13.1622318,21.6005179 C13.2450838,21.6045611 13.3315766,21.608407 13.410345,21.608407 C14.3196015,21.608407 15.083129,21.281205 15.6813953,20.630154 C15.685282,20.6222648 15.693154,20.6184189 15.6971883,20.6105297 C15.9018584,20.3620712 16.1378685,20.1370829 16.3859817,19.8965628 C16.5550805,19.7347369 16.7282628,19.5652683 16.8975584,19.3876641 C17.2873171,18.9814721 17.4917903,18.5080253 17.4917903,18.0228926 C17.4917903,17.5338647 17.2832827,17.0642638 16.8858489,16.6698069 L14.7249072,14.4964482 Z"/>
    <g fill="#000" stroke="#FFF" stroke-width=".5" transform="translate(9)">
      <path d="M1.41453826 5.54174035C2.68633509 5.75582222 3.84197889 6.3592655 4.76440633 7.28364912 5.68677309 8.20803275 6.28392348 9.36596023 6.50245383 10.6407813 6.55579683 10.9620257 6.83246438 11.1857778 7.14821372 11.1857778 7.18687071 11.1857778 7.22097625 11.1807906 7.25987599 11.1760468 7.61901583 11.1176 7.8569657 10.7771368 7.79870712 10.4170292 7.53648285 8.87466667 6.80825066 7.46847719 5.69648285 6.35427836 4.58471504 5.24001871 3.18159367 4.51019415 1.64259631 4.24745731 1.28345646 4.1892538.948530343 4.42754152.885234828 4.78272281.822182058 5.13790409 1.05515567 5.48329357 1.41453826 5.54174035zM11.959219 10.2271532C11.5273166 7.6875462 10.3327731 5.37643509 8.49774934 3.53709474 6.66272559 1.69805848 4.35665699.501207018 1.8222876.0680561404 1.46788127.00486549708 1.13295515.248140351 1.06990237.603321637 1.01158311.963246784 1.24935092 1.29920936 1.60873351 1.3624 3.87116887 1.74677427 5.9344934 2.82204912 7.57538259 4.46178246 9.21627177 6.10625965 10.2844063 8.17409591 10.6680026 10.4414784 10.7213456 10.7624187 10.9979525 10.9862316 11.3135198 10.9862316 11.3523588 10.9862316 11.3865251 10.9814877 11.4251214 10.9765006 11.7797704 10.9230409 12.0225145 10.5823345 11.959219 10.2271532z"/>
    </g>
  </g>
</svg>
