<svg xmlns="http://www.w3.org/2000/svg" width="58" height="36" viewBox="0 0 58 36">
  <path fill="#FFF" fill-rule="evenodd" d="M56.1722866,16.7926309 L50.5836615,25.0700788 C50.5681419,25.0930837 50.5392552,25.102603 50.5128606,25.0929704 L44.851962,23.0317111 C44.380598,22.8602511 43.8593902,23.1032189 43.6878822,23.5747621 C43.5163741,24.046192 43.7593628,24.5674847 44.2307267,24.7391713 L47.0182424,25.7541055 L46.666277,26.7215567 C46.5722535,26.9800499 46.3833001,27.1864138 46.134081,27.3026848 C45.8847486,27.4189557 45.6052833,27.4310814 45.3470017,27.3370221 L12.5777483,15.4054257 C12.3194667,15.3114797 12.1131812,15.1223411 11.9970678,14.8731405 C11.8809543,14.6238266 11.8687199,14.3442551 11.9627435,14.0857619 L13.6399881,9.475948 L20.4868298,11.9688603 C21.3082333,12.2679237 22.0552109,12.7152154 22.7070322,13.2981567 L28.2592939,18.2646028 C29.0840959,19.0024586 30.0294293,19.5684011 31.0688995,19.9469049 L35.7416444,21.6481323 C36.2130083,21.8197056 36.7341028,21.5767379 36.9056109,21.1051946 C37.0772322,20.6336514 36.8342436,20.1123587 36.3627663,19.9406721 L31.6900214,18.2394447 C30.8686179,17.9403814 30.1216403,17.4930896 29.4698191,16.9101484 L23.9176706,11.9437023 C23.0928686,11.2059598 22.1475353,10.6401306 21.1080651,10.2615134 L12.4976583,7.12650451 C12.4663927,7.11505874 12.4499669,7.08015479 12.4615216,7.04876391 L14.1180356,2.49572556 C14.2120592,2.23734571 14.4010126,2.0309818 14.6502317,1.91482419 C14.8994508,1.79855325 15.178916,1.7863142 15.4373109,1.88048686 L56.1431733,16.7017446 C56.1513295,16.7046911 56.1708139,16.7117172 56.180103,16.739935 C56.1888257,16.7681528 56.177271,16.7853781 56.1722866,16.7926309 Z M30.0288628,25.4617283 L26.0330877,25.4617283 L26.0330877,22.2384396 L30.0288628,23.6932995 L30.0288628,25.4617283 Z M30.8487937,27.3476746 L30.275703,31.360835 C30.2037693,31.8649024 29.7657101,32.2448794 29.2567368,32.2448794 L26.8052137,32.2448794 C26.2963537,32.2448794 25.8584077,31.8649024 25.7863607,31.360835 L25.2132701,27.3476746 C25.2121373,27.3401952 25.2094185,27.3203634 25.2274303,27.2995117 C25.245442,27.27866 25.2656061,27.27866 25.2730827,27.27866 L30.7886413,27.27866 C30.7963444,27.27866 30.8162819,27.27866 30.8342937,27.2995117 C30.8524187,27.3203634 30.8496999,27.3401952 30.8487937,27.3476746 Z M5.69091822,28.2476978 L23.5070255,28.2476978 L23.8009907,30.3069172 L5.69091822,30.3069172 L5.69091822,28.2476978 Z M3.87467736,33.1535153 C3.87467736,33.721271 3.41305562,34.1830683 2.84551575,34.1830683 L1.81624085,34.1830683 L1.81624085,24.3715466 L2.84551575,24.3715466 C3.41305562,24.3715466 3.87467736,24.8334573 3.87467736,25.4010997 L3.87467736,33.1535153 Z M57.9073047,16.179092 C57.7276404,15.6252752 57.3109913,15.1935089 56.7640687,14.9943977 L16.0582063,0.173139979 C15.343967,-0.0868264186 14.5711613,-0.0531690427 13.882297,0.268219233 C13.1934328,0.589494184 12.6709789,1.16008303 12.410998,1.87448066 L10.754484,6.42751901 C10.4007061,7.4002965 10.9037889,8.47982567 11.8763098,8.83396472 L11.9330638,8.85458978 L10.2558192,13.464517 C9.99583838,14.179028 10.0297095,14.9520144 10.3508623,15.6410273 C10.6721284,16.3301536 11.2422737,16.8528062 11.9566263,17.1128859 L24.2168468,21.5770778 L24.2168468,25.7903693 C24.084874,25.8804623 23.9621902,25.9858541 23.8553658,26.1090378 C23.7688188,26.20899 23.6942797,26.3169883 23.6314085,26.4307661 L5.69091822,26.4307661 L5.69091822,25.4010997 C5.69091822,23.8315554 4.41446328,22.554615 2.84551575,22.554615 L0.908177068,22.554615 C0.406566982,22.554615 0,22.9613366 0,23.4630241 L0,35.0915908 C0,35.5932784 0.406566982,36 0.908177068,36 L2.84551575,36 C4.41446328,36 5.69091822,34.7230596 5.69091822,33.1535153 L5.69091822,32.1238489 L24.1092295,32.1238489 C24.4938199,33.2578871 25.5745245,34.0619244 26.8052137,34.0619244 L29.2567368,34.0619244 C30.6636919,34.0619244 31.8746701,33.011293 32.0735923,31.6179683 L32.646683,27.6046946 C32.7237143,27.0656099 32.5633078,26.5205191 32.2065847,26.1090378 C32.099647,25.9857408 31.9771898,25.8804623 31.8451037,25.7903693 L31.8451037,24.3546613 L44.7257665,29.0445956 C45.0432943,29.1602999 45.37249,29.2178688 45.7006663,29.2178688 C46.1106317,29.2178688 46.5190112,29.1281158 46.9014492,28.9496297 C47.5903135,28.6282414 48.1128806,28.0578792 48.3727482,27.3433683 L48.7248268,26.375917 L49.8913988,26.8006572 C50.1025553,26.8776046 50.3199424,26.9145484 50.5346106,26.9145484 C51.1442912,26.9145484 51.7314287,26.6162783 52.088605,26.0872795 L57.6772301,17.8098316 C58.0031408,17.3271825 58.0868557,16.7327955 57.9073047,16.179092 L57.9073047,16.179092 Z"/>
</svg>
