<svg xmlns="http://www.w3.org/2000/svg" xmlns:xlink="http://www.w3.org/1999/xlink" width="22" height="14" viewBox="0 0 22 14">
  <defs>
    <polygon id="visible-a" points=".003 .019 .003 14 21.997 14 21.997 .019 .003 .019"/>
  </defs>
  <g fill="none" fill-rule="evenodd">
    <mask id="visible-b" fill="#fff">
      <use xlink:href="#visible-a"/>
    </mask>
    <path fill="#000" d="M21.8188929,6.47541176 C18.4965,2.193 14.9090408,0.0188235294 11.146648,0.0188235294 C9.65614796,0.0188235294 8.14740816,0.367176471 6.65685204,1.04941176 C5.48507143,1.59052941 4.32232653,2.33888235 3.2042551,3.27523529 C1.31405102,4.86117647 0.200581633,6.44229412 0.155627551,6.50823529 C-0.0598265306,6.81894118 -0.0508469388,7.24241176 0.178020408,7.54364706 C3.49603571,11.8306471 7.08787245,14 10.8502653,14 C12.3410459,14 13.8495051,13.6518824 15.3400612,12.9694118 C16.5120663,12.4282941 17.6748673,11.6798824 18.7928827,10.7435294 C20.6830867,9.15758824 21.7965561,7.57647059 21.8412857,7.51052941 C22.0570204,7.19988235 22.0479847,6.77641176 21.8188929,6.47541176 Z M17.7467602,9.44941176 C16.1843112,10.7529412 13.7239031,12.3058235 10.8502653,12.3058235 C7.74798469,12.3058235 4.72175,10.5222941 1.84833673,7.00229412 C2.30191837,6.44229412 3.13230612,5.50594118 4.24577551,4.57417647 C5.80822449,3.27064706 8.26863265,1.71758824 11.1422704,1.71758824 C14.244551,1.71758824 17.2707857,3.50111765 20.1442551,7.02111765 C19.6908418,7.58111765 18.8602296,8.52229412 17.7467602,9.44941176 Z" mask="url(#visible-b)"/>
    <path fill="#000" d="M13.9753878,6.16470588 C13.5307857,6.16470588 13.1670561,6.54594118 13.1670561,7.01170588 C13.1670561,8.26811765 12.1928265,9.28952941 10.9941071,9.28952941 C9.79533163,9.28952941 8.82087755,8.26811765 8.82087755,7.01170588 C8.82087755,5.75529412 9.79533163,4.73411765 10.9941071,4.73411765 C11.4384286,4.73411765 11.8021582,4.35294118 11.8021582,3.88717647 C11.8021582,3.42117647 11.4384286,3.03994118 10.9941071,3.03994118 C8.90175,3.03994118 7.20471939,4.82352941 7.20471939,7.01170588 C7.20471939,9.19988235 8.90175,10.9834118 10.9941071,10.9834118 C13.0861837,10.9834118 14.7834388,9.19988235 14.7834388,7.01170588 C14.7834388,6.54594118 14.4197653,6.16470588 13.9753878,6.16470588 Z"/>
  </g>
</svg>
